<svg width="17" height="20" viewBox="0 0 17 20" fill="none" xmlns="http://www.w3.org/2000/svg">
<path fill-rule="evenodd" clip-rule="evenodd" d="M13.6014 10.6255C13.5772 8.09631 15.6679 6.87736 15.7622 6.8196C14.5883 5.09851 12.7567 4.86291 12.1044 4.83537C10.5473 4.67903 9.06557 5.75333 8.27503 5.75333C7.48664 5.75333 6.26592 4.85919 4.97556 4.88461C3.27652 4.90824 1.71144 5.87096 0.83667 7.3907C-0.926176 10.4516 0.38606 14.9847 2.10518 17.4679C2.94423 18.6804 3.9471 20.0483 5.26215 19.9989C6.53068 19.9491 7.0083 19.1808 8.53819 19.1808C10.0693 19.1808 10.4993 19.9989 11.8411 19.9737C13.2023 19.9491 14.0678 18.7352 14.9017 17.5177C15.8657 16.1074 16.2626 14.7422 16.2857 14.6713C16.2564 14.6606 13.6289 13.6519 13.6014 10.6255Z" fill="black"/>
<path fill-rule="evenodd" clip-rule="evenodd" d="M11.0867 3.19447C11.7856 2.34743 12.2545 1.17202 12.126 0C11.1201 0.039962 9.9005 0.671452 9.17998 1.51585C8.5323 2.26516 7.96548 3.4617 8.11918 4.60919C9.24129 4.69644 10.3875 4.03989 11.0867 3.19447Z" fill="black"/>
</svg>
