<svg width="19" height="18" viewBox="0 0 19 18" fill="none" xmlns="http://www.w3.org/2000/svg">
<path d="M18.0525 9.19985C18.0525 8.45986 17.9911 7.91986 17.8581 7.35986H9.21094V10.6998H14.2866C14.1843 11.5299 13.6317 12.7799 12.4037 13.6198L12.3865 13.7316L15.1206 15.8014L15.31 15.8199C17.0496 14.2498 18.0525 11.9398 18.0525 9.19985Z" fill="#4285F4"/>
<path d="M9.21199 17.9998C11.6986 17.9998 13.7862 17.1997 15.311 15.8198L12.4048 13.6197C11.627 14.1497 10.5832 14.5197 9.21199 14.5197C6.77647 14.5197 4.70936 12.9498 3.97249 10.7798L3.86448 10.7887L1.02155 12.9388L0.984375 13.0397C2.49889 15.9797 5.60983 17.9998 9.21199 17.9998Z" fill="#34A853"/>
<path d="M3.97049 10.7798C3.77606 10.2198 3.66354 9.6198 3.66354 8.99983C3.66354 8.37979 3.77606 7.77981 3.96026 7.21982L3.95511 7.10056L1.07656 4.91602L0.982375 4.95979C0.35817 6.17981 0 7.54983 0 8.99983C0 10.4498 0.35817 11.8198 0.982375 13.0398L3.97049 10.7798Z" fill="#FBBC05"/>
<path d="M9.21198 3.47998C10.9414 3.47998 12.108 4.20997 12.7732 4.82001L15.3724 2.34C13.7761 0.890004 11.6986 0 9.21198 0C5.60983 0 2.49889 2.01998 0.984375 4.95996L3.96226 7.21999C4.70936 5.05 6.77647 3.47998 9.21198 3.47998Z" fill="#EB4335"/>
</svg>
