<svg width="30" height="20" viewBox="0 0 30 20" fill="none" xmlns="http://www.w3.org/2000/svg">
<g clip-path="url(#clip0_0_30)">
<mask id="mask0_0_30" style="mask-type:luminance" maskUnits="userSpaceOnUse" x="0" y="0" width="30" height="20">
<path d="M2.4 0H27.6C28.9296 0 30 1.0704 30 2.4V17.6C30 18.9296 28.9296 20 27.6 20H2.4C1.0704 20 0 18.9296 0 17.6V2.4C0 1.0704 1.0704 0 2.4 0Z" fill="white"/>
</mask>
<g mask="url(#mask0_0_30)">
<path d="M0 20L0 13.3333H30V20H0Z" fill="#27AE60"/>
<path d="M0 13.3335L0 6.66683L30 6.66683V13.3335L0 13.3335Z" fill="white"/>
<path d="M0 6.6665L0 -0.000163078L30 -0.000163078V6.6665L0 6.6665Z" fill="#F39C12"/>
<path d="M15.0034 12.9156C16.6147 12.9156 17.9209 11.6094 17.9209 9.99807C17.9209 8.38678 16.6147 7.08057 15.0034 7.08057C13.3921 7.08057 12.0859 8.38678 12.0859 9.99807C12.0859 11.6094 13.3921 12.9156 15.0034 12.9156Z" fill="#000088"/>
<path d="M15.0059 12.5509C16.4158 12.5509 17.5587 11.408 17.5587 9.99812C17.5587 8.58825 16.4158 7.44531 15.0059 7.44531C13.5961 7.44531 12.4531 8.58825 12.4531 9.99812C12.4531 11.408 13.5961 12.5509 15.0059 12.5509Z" fill="white"/>
<path d="M15.0106 10.5084C15.2925 10.5084 15.5211 10.2798 15.5211 9.99787C15.5211 9.71589 15.2925 9.4873 15.0106 9.4873C14.7286 9.4873 14.5 9.71589 14.5 9.99787C14.5 10.2798 14.7286 10.5084 15.0106 10.5084Z" fill="#000088"/>
<path d="M17.5306 10.4583C17.6005 10.4675 17.6646 10.4184 17.6739 10.3485C17.6831 10.2786 17.6339 10.2144 17.564 10.2052C17.4942 10.196 17.43 10.2451 17.4208 10.315C17.4115 10.3849 17.4607 10.449 17.5306 10.4583Z" fill="#000088"/>
<path d="M15.0172 12.5511L15.1047 11.0194L15.0172 10.29L14.9297 11.0194L15.0172 12.5511Z" fill="#000088"/>
<path d="M17.3247 11.0938C17.3898 11.1208 17.4645 11.0899 17.4915 11.0248C17.5186 10.9597 17.4877 10.885 17.4226 10.858C17.3575 10.831 17.2828 10.8619 17.2558 10.927C17.2287 10.9921 17.2596 11.0668 17.3247 11.0938Z" fill="#000088"/>
<path d="M14.3505 12.4647L14.8318 11.0077L14.9361 10.2805L14.6627 10.9624L14.3505 12.4647Z" fill="#000088"/>
<path d="M16.9613 11.6532C17.0172 11.6962 17.0974 11.6857 17.1403 11.6298C17.1833 11.5739 17.1727 11.4937 17.1168 11.4508C17.0609 11.4079 16.9808 11.4184 16.9379 11.4743C16.8949 11.5302 16.9054 11.6103 16.9613 11.6532Z" fill="#000088"/>
<path d="M13.7421 12.2089L14.5838 10.9262L14.8727 10.2508L14.4322 10.8387L13.7421 12.2089Z" fill="#000088"/>
<path d="M16.4687 12.1018C16.5116 12.1577 16.5917 12.1684 16.6477 12.1255C16.7037 12.0826 16.7143 12.0025 16.6714 11.9465C16.6285 11.8906 16.5484 11.88 16.4924 11.9228C16.4365 11.9657 16.4259 12.0458 16.4687 12.1018Z" fill="#000088"/>
<path d="M13.2126 11.8032L14.3579 10.7821L14.8119 10.2045L14.2341 10.6583L13.2126 11.8032Z" fill="#000088"/>
<path d="M15.8754 12.4055C15.9023 12.4706 15.977 12.5016 16.0421 12.4746C16.1073 12.4477 16.1382 12.373 16.1113 12.3079C16.0843 12.2427 16.0097 12.2118 15.9446 12.2387C15.8794 12.2657 15.8484 12.3403 15.8754 12.4055Z" fill="#000088"/>
<path d="M12.8044 11.2747L14.1746 10.5846L14.7625 10.1442L14.0871 10.433L12.8044 11.2747Z" fill="#000088"/>
<path d="M15.2166 12.5464C15.2257 12.6163 15.2898 12.6656 15.3597 12.6564C15.4296 12.6473 15.4789 12.5832 15.4697 12.5133C15.4605 12.4434 15.3965 12.3941 15.3266 12.4033C15.2567 12.4124 15.2074 12.4765 15.2166 12.5464Z" fill="#000088"/>
<path d="M12.5493 10.6588L14.0516 10.3471L14.7336 10.0738L14.0063 10.178L12.5493 10.6588Z" fill="#000088"/>
<path d="M14.5505 12.5125C14.5413 12.5824 14.5904 12.6465 14.6603 12.6558C14.7302 12.665 14.7943 12.6159 14.8036 12.546C14.8128 12.4761 14.7637 12.4119 14.6938 12.4027C14.6239 12.3935 14.5598 12.4426 14.5505 12.5125Z" fill="#000088"/>
<path d="M12.4578 9.99817L13.9894 10.0857L14.7188 9.99817L13.9894 9.91064L12.4578 9.99817Z" fill="#000088"/>
<path d="M13.9184 12.3081C13.8914 12.3732 13.9223 12.4479 13.9874 12.4749C14.0525 12.502 14.1272 12.4711 14.1542 12.406C14.1812 12.3409 14.1503 12.2662 14.0852 12.2392C14.0201 12.2121 13.9454 12.243 13.9184 12.3081Z" fill="#000088"/>
<path d="M12.5432 9.33733L14.0001 9.81857L14.7273 9.92292L14.0455 9.64948L12.5432 9.33733Z" fill="#000088"/>
<path d="M13.3526 11.9462C13.3096 12.0021 13.3201 12.0823 13.3761 12.1252C13.432 12.1681 13.5121 12.1576 13.5551 12.1017C13.598 12.0458 13.5875 11.9657 13.5316 11.9227C13.4757 11.8798 13.3955 11.8903 13.3526 11.9462Z" fill="#000088"/>
<path d="M12.7947 8.72213L14.0776 9.56378L14.7531 9.85266L14.1651 9.41217L12.7947 8.72213Z" fill="#000088"/>
<path d="M12.9074 11.4512C12.8515 11.4941 12.8409 11.5742 12.8838 11.6301C12.9267 11.6861 13.0068 11.6967 13.0627 11.6538C13.1187 11.6109 13.1293 11.5308 13.0864 11.4748C13.0435 11.4189 12.9634 11.4083 12.9074 11.4512Z" fill="#000088"/>
<path d="M13.2063 8.19256L14.2276 9.33787L14.8053 9.79188L14.3514 9.21407L13.2063 8.19256Z" fill="#000088"/>
<path d="M12.597 10.8573C12.5318 10.8843 12.5008 10.9589 12.5278 11.0241C12.5547 11.0892 12.6294 11.1202 12.6945 11.0932C12.7597 11.0663 12.7907 10.9916 12.7637 10.9265C12.7368 10.8613 12.6621 10.8304 12.597 10.8573Z" fill="#000088"/>
<path d="M13.731 7.78769L14.4212 9.158L14.8617 9.74592L14.5728 9.07046L13.731 7.78769Z" fill="#000088"/>
<path d="M12.4575 10.2044C12.3876 10.2135 12.3383 10.2776 12.3475 10.3475C12.3566 10.4174 12.4207 10.4667 12.4906 10.4575C12.5605 10.4483 12.6098 10.3843 12.6006 10.3143C12.5915 10.2444 12.5274 10.1952 12.4575 10.2044Z" fill="#000088"/>
<path d="M14.346 7.532L14.6578 9.03447L14.9311 9.7165L14.8269 8.98917L14.346 7.532Z" fill="#000088"/>
<path d="M12.4928 9.53877C12.4229 9.52954 12.3588 9.57871 12.3496 9.6486C12.3403 9.7185 12.3895 9.78264 12.4594 9.79187C12.5293 9.80111 12.5934 9.75194 12.6027 9.68204C12.6119 9.61215 12.5627 9.54801 12.4928 9.53877Z" fill="#000088"/>
<path d="M15.0061 7.44581L14.9186 8.97762L15.0062 9.70704L15.0937 8.9776L15.0061 7.44581Z" fill="#000088"/>
<path d="M12.6987 8.90277C12.6336 8.87575 12.5589 8.90664 12.5319 8.97175C12.5048 9.03687 12.5357 9.11156 12.6008 9.13858C12.666 9.1656 12.7407 9.13471 12.7677 9.0696C12.7947 9.00448 12.7638 8.92979 12.6987 8.90277Z" fill="#000088"/>
<path d="M15.6728 7.53221L15.1916 8.98929L15.0873 9.71659L15.3607 9.03462L15.6728 7.53221Z" fill="#000088"/>
<path d="M13.0621 8.34332C13.0062 8.30037 12.926 8.31088 12.8831 8.36679C12.8402 8.4227 12.8507 8.50284 12.9066 8.54578C12.9625 8.58872 13.0426 8.57821 13.0856 8.5223C13.1285 8.46639 13.118 8.38626 13.0621 8.34332Z" fill="#000088"/>
<path d="M16.2812 7.78749L15.4396 9.07032L15.1508 9.74579L15.5912 9.15784L16.2812 7.78749Z" fill="#000088"/>
<path d="M13.5547 7.89476C13.5118 7.83881 13.4317 7.82821 13.3757 7.87109C13.3198 7.91397 13.3092 7.99409 13.352 8.05005C13.3949 8.10601 13.475 8.11661 13.531 8.07372C13.587 8.03084 13.5976 7.95072 13.5547 7.89476Z" fill="#000088"/>
<path d="M16.8108 8.19318L15.6655 9.21441L15.2115 9.7921L15.7893 9.33822L16.8108 8.19318Z" fill="#000088"/>
<path d="M14.1403 7.59062C14.1133 7.52547 14.0387 7.4945 13.9735 7.52144C13.9084 7.54838 13.8774 7.62304 13.9043 7.68819C13.9313 7.75334 14.0059 7.78431 14.0711 7.75737C14.1362 7.73043 14.1672 7.65577 14.1403 7.59062Z" fill="#000088"/>
<path d="M17.2115 8.72139L15.8411 9.41143L15.2531 9.85193L15.9286 9.56305L17.2115 8.72139Z" fill="#000088"/>
<path d="M14.7991 7.45015C14.7899 7.38025 14.7258 7.331 14.6559 7.34015C14.586 7.3493 14.5368 7.41339 14.5459 7.48329C14.5551 7.55319 14.6192 7.60245 14.6891 7.59329C14.759 7.58414 14.8082 7.52006 14.7991 7.45015Z" fill="#000088"/>
<path d="M17.4667 9.33789L15.9641 9.64953L15.282 9.92276L16.0094 9.81866L17.4667 9.33789Z" fill="#000088"/>
<path d="M15.4651 7.48407C15.4744 7.41418 15.4252 7.35003 15.3553 7.34079C15.2854 7.33155 15.2213 7.38071 15.212 7.4506C15.2028 7.52049 15.252 7.58464 15.3219 7.59389C15.3918 7.60313 15.4559 7.55396 15.4651 7.48407Z" fill="#000088"/>
<path d="M17.5581 9.99856L16.0263 9.91092L15.2969 9.99841L16.0263 10.086L17.5581 9.99856Z" fill="#000088"/>
<path d="M16.0972 7.68848C16.1243 7.62336 16.0934 7.54867 16.0283 7.52164C15.9632 7.49461 15.8885 7.52549 15.8614 7.5906C15.8344 7.65571 15.8653 7.73041 15.9304 7.75743C15.9955 7.78446 16.0702 7.75359 16.0972 7.68848Z" fill="#000088"/>
<path d="M17.4726 10.6595L16.0156 10.1781L15.2883 10.0736L15.9702 10.3472L17.4726 10.6595Z" fill="#000088"/>
<path d="M16.663 8.05089C16.706 7.99498 16.6955 7.91484 16.6396 7.87189C16.5837 7.82894 16.5035 7.83945 16.4606 7.89535C16.4176 7.95126 16.4281 8.0314 16.484 8.07435C16.5399 8.1173 16.6201 8.10679 16.663 8.05089Z" fill="#000088"/>
<path d="M17.2207 11.2751L15.938 10.4333L15.2625 10.1444L15.8504 10.585L17.2207 11.2751Z" fill="#000088"/>
<path d="M17.1082 8.54592C17.1641 8.50304 17.1747 8.42292 17.1319 8.36696C17.089 8.31099 17.0089 8.30039 16.9529 8.34326C16.8969 8.38614 16.8863 8.46626 16.9292 8.52223C16.9721 8.57819 17.0522 8.5888 17.1082 8.54592Z" fill="#000088"/>
<path d="M16.8092 11.8041L15.788 10.6588L15.2104 10.2047L15.6642 10.7825L16.8092 11.8041Z" fill="#000088"/>
<path d="M17.4186 9.1388C17.4838 9.11186 17.5148 9.03721 17.4878 8.97206C17.4609 8.90691 17.3862 8.87594 17.3211 8.90288C17.2559 8.92982 17.225 9.00447 17.2519 9.06962C17.2788 9.13477 17.3535 9.16574 17.4186 9.1388Z" fill="#000088"/>
<path d="M16.2844 12.209L15.5944 10.8386L15.1539 10.2507L15.4428 10.9261L16.2844 12.209Z" fill="#000088"/>
<path d="M17.5581 9.79174C17.628 9.78259 17.6773 9.71851 17.6681 9.64861C17.659 9.57871 17.5949 9.52946 17.525 9.53861C17.4551 9.54776 17.4059 9.61184 17.415 9.68174C17.4242 9.75164 17.4882 9.80089 17.5581 9.79174Z" fill="#000088"/>
<path d="M15.6694 12.4641L15.3578 10.9616L15.0846 10.2796L15.1887 11.0069L15.6694 12.4641Z" fill="#000088"/>
</g>
</g>
<defs>
<clipPath id="clip0_0_30">
<rect width="30" height="20" fill="white"/>
</clipPath>
</defs>
</svg>
