<svg width="172" height="120" viewBox="0 0 172 120" fill="none" xmlns="http://www.w3.org/2000/svg">
<g clip-path="url(#clip0_533_16802)">
<path d="M171.808 113.633H0.1875V114.156H171.808V113.633Z" fill="#3F3D56"/>
<path d="M123.665 55.155C122.076 45.6276 113.795 38.3672 103.818 38.3672H63.017C53.0439 38.3672 44.7643 45.6217 43.1696 55.1433C42.9856 56.2323 42.8906 57.3523 42.8906 58.4935V94.0436C42.8906 95.1848 42.9856 96.3029 43.1696 97.3918C44.4388 104.978 49.9534 111.126 57.1885 113.31C59.0332 113.868 60.9902 114.168 63.017 114.168H103.818C105.845 114.168 107.802 113.868 109.646 113.31C116.884 111.124 122.4 104.972 123.665 97.3802C123.848 96.2951 123.942 95.181 123.942 94.0436V58.4935C123.942 57.3561 123.848 56.2401 123.665 55.155ZM107.271 113.31C106.149 113.509 104.996 113.614 103.818 113.614H63.017C61.8389 113.614 60.686 113.509 59.5641 113.31C50.4029 111.68 43.4467 103.674 43.4467 94.0436V82.2433C43.4467 48.9002 70.475 38.9233 103.818 38.9233C114.626 38.9233 123.388 47.6853 123.388 58.4935V94.0436C97.1506 97.5546 116.432 111.68 107.271 113.31Z" fill="#3F3D56"/>
<path d="M91.5391 65.1934L93.1088 75.3964L116.131 72.257L113.907 60.3359L91.5391 65.1934Z" fill="#6C63FF"/>
<path d="M109.605 7.9375H100.086V17.7903H109.605V7.9375Z" fill="#2F2E41"/>
<path d="M100.953 18.3605L103.308 11.2969H107.897L108.138 18.3605H100.953Z" fill="#FFB6B6"/>
<path opacity="0.1" d="M100.953 18.3605L103.308 11.2969H107.897L108.138 18.3605H100.953Z" fill="black"/>
<path d="M103.437 81.2792L103.176 108.487L102.914 110.58V113.585L106.838 113.981L107.1 107.964C107.1 107.964 111.286 96.1914 110.239 87.0348C109.193 77.8782 109.716 80.4944 109.716 80.4944L103.437 81.2792Z" fill="#FFB6B6"/>
<path d="M105.931 83.4162L96.2774 108.855L95.7598 110.9L94.6668 113.699L90.8672 112.64L92.8124 106.94C92.8124 106.94 93.196 94.4515 97.5017 86.303C101.807 78.1544 100.368 80.401 100.368 80.401L105.931 83.4162Z" fill="#FFB6B6"/>
<path d="M100.957 17.5797L93.8934 20.7191L98.4036 44.0062L97.691 77.4292L92.9819 87.3706C92.9819 87.3706 92.1929 93.0561 100.303 89.3935C108.413 85.7309 117.57 84.6844 117.57 84.6844L115.346 69.3798L113.384 29.2217L113.645 20.3267L107.89 16.6641C107.89 16.6641 100.957 17.5797 100.957 17.5797Z" fill="#2F2E41"/>
<path d="M97.0183 87.7292L89.1797 74.6074L98.1373 44.0014L93.8888 20.7143L101.342 17.5234C101.342 17.5234 105.201 21.2809 105.201 24.3801C105.201 27.4794 97.0183 87.7292 97.0183 87.7292Z" fill="#E6E6E6"/>
<path d="M114.025 85.113L106.91 23.992C106.82 23.2203 106.952 22.4389 107.29 21.7392L109.326 17.5234L117.306 19.7987L114.098 44.7862L122.669 69.375L114.025 85.113Z" fill="#E6E6E6"/>
<path d="M107.629 113.456C107.629 113.456 102.658 110.578 102.135 112.148C101.612 113.718 101.35 115.026 101.35 115.026C101.35 115.026 100.042 119.997 103.966 119.997C107.89 119.997 107.629 117.736 107.629 117.736V113.456Z" fill="#2F2E41"/>
<path d="M90.3265 111.871C90.3265 111.871 96.0035 110.998 95.9199 112.651C95.8363 114.303 95.6041 115.617 95.6041 115.617C95.6041 115.617 95.0143 120.723 91.359 119.295C87.7036 117.868 88.7697 115.857 88.7697 115.857L90.3265 111.871Z" fill="#2F2E41"/>
<path d="M105.91 15.1404C109.502 15.1404 112.414 12.2285 112.414 8.63658C112.414 5.04465 109.502 2.13281 105.91 2.13281C102.318 2.13281 99.4062 5.04465 99.4062 8.63658C99.4062 12.2285 102.318 15.1404 105.91 15.1404Z" fill="#FFB6B6"/>
<path d="M111.109 2.84316C110.806 1.23962 109.16 0.155014 107.534 0.0190069C105.908 -0.117 104.315 0.497049 102.85 1.217C101.858 1.70505 100.88 2.25513 100.076 3.01479C99.2721 3.77445 98.6476 4.76681 98.5034 5.86356C98.4524 6.25161 98.459 6.65702 98.3001 7.01472C98.1017 7.46156 97.6758 7.76502 97.4187 8.1809C96.9577 8.92676 97.1695 10.0118 97.8772 10.5296C96.9876 10.9087 96.0736 11.3041 95.3955 11.9935C94.7173 12.6828 94.3258 13.7471 94.6979 14.6396C94.8295 14.9554 95.0471 15.2318 95.1596 15.5549C95.3732 16.1684 95.1699 16.8653 94.7909 17.393C94.4119 17.9206 93.877 18.3118 93.3516 18.6938C94.702 18.9585 96.0805 19.1647 97.4511 19.0412C98.8217 18.9177 100.197 18.4374 101.19 17.4842C102.182 16.5309 102.728 15.0605 102.372 13.7312C102.099 12.7129 101.337 11.8206 101.337 10.7664C101.337 9.95604 101.793 9.22505 102.233 8.54455C103.194 7.0584 104.155 5.57224 105.116 4.08609C105.289 3.81876 105.471 3.54212 105.744 3.37861C106.209 3.10045 106.811 3.22277 107.301 3.45365C107.791 3.68453 108.239 4.01578 108.761 4.15893C109.827 4.4511 111.063 3.78014 111.399 2.7272" fill="#2F2E41"/>
<path d="M107.262 16.0696C106.72 16.5945 105.939 16.7635 105.215 16.9762C104.491 17.1888 103.721 17.5233 103.396 18.2038C103.076 18.871 103.308 19.718 103.837 20.2353C104.366 20.7525 105.134 20.9704 105.874 20.9601C106.614 20.9499 107.334 20.7331 108.03 20.4814C109.932 19.7931 111.734 18.8275 113.36 17.6248C112.307 17.3333 111.617 16.1032 111.919 15.0525C112.164 14.1979 112.914 13.6018 113.425 12.8738C114.304 11.6202 114.45 9.96785 114.159 8.4648C113.868 6.96175 113.183 5.56845 112.505 4.19584C112.29 3.76194 112.071 3.3207 111.737 2.97084C111.402 2.62097 110.929 2.37032 110.447 2.42045C109.649 2.50363 109.139 3.38055 109.133 4.18367C109.128 4.98678 109.48 5.74157 109.747 6.49894C110.023 7.27924 110.214 8.10634 110.14 8.93047C110.078 9.62111 109.827 10.2938 109.421 10.856C109.108 11.2902 108.708 11.6546 108.367 12.0676C108.104 12.3869 107.87 12.7486 107.801 13.1568C107.675 13.8995 108.111 14.6511 107.991 15.3949C107.865 16.1812 107.038 16.7833 106.251 16.6614" fill="#2F2E41"/>
<path d="M87.3702 106.905C99.6516 106.905 109.608 96.9485 109.608 84.6671C109.608 72.3857 99.6516 62.4297 87.3702 62.4297C75.0888 62.4297 65.1328 72.3857 65.1328 84.6671C65.1328 96.9485 75.0888 106.905 87.3702 106.905Z" fill="#6C63FF"/>
<path d="M100.697 82.8805H97.9325C97.5025 80.3462 96.1753 78.051 94.1934 76.414C89.6323 72.6468 82.8808 73.2903 79.1135 77.8514C79.1007 77.8659 79.0883 77.8809 79.0765 77.8962C78.7755 78.2864 78.8478 78.8468 79.2379 79.1478C79.6281 79.4489 80.1884 79.3766 80.4895 78.9864C82.126 77.0037 84.6031 75.7419 87.3728 75.7419C91.6132 75.7424 95.2681 78.726 96.1175 82.8805H93.6798C93.5754 82.8805 93.4745 82.9171 93.3944 82.9838C93.205 83.1415 93.1794 83.4228 93.3371 83.6122L96.8457 87.8239C96.8629 87.8446 96.8819 87.8636 96.9026 87.8808C97.0918 88.0386 97.3732 88.0132 97.531 87.8239L101.04 83.6122C101.106 83.5321 101.143 83.4311 101.143 83.3268C101.143 83.0804 100.943 82.8806 100.697 82.8805Z" fill="white"/>
<path d="M95.5066 90.1803C95.1164 89.8792 94.556 89.9515 94.255 90.3417C92.9569 91.9135 91.1599 92.9935 89.1628 93.4024C84.3329 94.3913 79.6158 91.2775 78.6269 86.4476H81.0647C81.3111 86.4475 81.5108 86.2477 81.5107 86.0013C81.5107 85.897 81.4741 85.7961 81.4074 85.7159L77.8988 81.5042C77.741 81.3149 77.4596 81.2895 77.2704 81.4473C77.2497 81.4645 77.2307 81.4835 77.2135 81.5042L73.7049 85.7159C73.5472 85.9053 73.5729 86.1866 73.7622 86.3443C73.8423 86.411 73.9433 86.4476 74.0476 86.4476H76.8119C77.242 88.982 78.5692 91.2771 80.5511 92.9141C85.1122 96.6814 91.8637 96.0378 95.6309 91.4768C95.6438 91.4622 95.6561 91.4472 95.6679 91.4319C95.969 91.0417 95.8967 90.4813 95.5066 90.1803Z" fill="white"/>
<path d="M93.5801 62.0551C93.3108 63.9822 92.0982 65.4053 90.8718 65.2337C89.6454 65.0622 88.8698 63.361 89.1395 61.4332C89.2366 60.6617 89.5171 59.9246 89.9575 59.2837L91.2017 51.1328L95.0143 51.7982L93.3829 59.7629C93.6308 60.5002 93.6984 61.2862 93.5801 62.0551Z" fill="#FFB6B6"/>
<path d="M96.8986 20.3231C96.8986 20.3231 92.9743 19.015 92.4511 23.7241C91.9278 28.4332 91.4046 34.1888 91.4046 34.1888C91.4046 34.1888 89.0501 39.6827 90.0965 42.5605C91.143 45.4383 92.9743 43.4319 91.143 45.874C89.3117 48.3161 89.5668 56.351 89.5668 56.351L95.4597 56.0544C95.4597 56.0544 98.7299 34.4504 98.7299 33.9272C98.7299 33.4039 96.8986 20.3231 96.8986 20.3231Z" fill="#E6E6E6"/>
<path d="M122.401 61.1775C122.474 63.122 121.53 64.7358 120.293 64.782C119.055 64.8282 117.993 63.2895 117.92 61.3443C117.881 60.5677 118.028 59.7929 118.349 59.0846L118.144 50.8419L122.014 50.8281L121.805 58.9555C122.178 59.6379 122.383 60.3999 122.401 61.1775Z" fill="#FFB6B6"/>
<path d="M116.363 20.2325C116.363 20.2325 120.31 18.9948 120.749 23.7125C121.188 28.4302 121.609 37.0719 121.609 37.0719C121.609 37.0719 123.865 42.6071 122.767 45.4657C121.669 48.3243 119.874 46.2855 121.661 48.7599C123.449 51.2344 122.807 58.2125 122.807 58.2125L116.921 57.8106C116.921 57.8106 114.28 37.2026 114.289 36.6795C114.298 36.1563 116.363 20.2325 116.363 20.2325Z" fill="#E6E6E6"/>
</g>
<defs>
<clipPath id="clip0_533_16802">
<rect width="171.621" height="120" fill="white" transform="translate(0.1875)"/>
</clipPath>
</defs>
</svg>
