<svg width="360" height="440" viewBox="0 0 360 440" fill="none" xmlns="http://www.w3.org/2000/svg">
<g opacity="0.54" clip-path="url(#clip0_12178_18088)">
<g opacity="0.9">
<circle cx="0.866106" cy="0.866106" r="0.866106" transform="matrix(-1 0 0 1 287.57 205.075)" fill="white" fill-opacity="0.4"/>
<circle cx="0.639683" cy="0.639683" r="0.639683" transform="matrix(-1 0 0 1 353.867 228.754)" fill="white" fill-opacity="0.4"/>
<circle cx="0.610874" cy="0.610874" r="0.610874" transform="matrix(-1 0 0 1 161.477 418.186)" fill="white" fill-opacity="0.3"/>
<circle cx="0.700234" cy="0.700234" r="0.700234" transform="matrix(-1 0 0 1 211.203 340.045)" fill="white" fill-opacity="0.3"/>
<circle cx="0.621616" cy="0.621616" r="0.621616" transform="matrix(-1 0 0 1 358.008 168.372)" fill="white" fill-opacity="0.4"/>
<circle cx="0.818832" cy="0.818832" r="0.818832" transform="matrix(-1 0 0 1 342.031 383.852)" fill="white" fill-opacity="0.3"/>
<circle cx="0.776743" cy="0.776743" r="0.776743" transform="matrix(-1 0 0 1 352.688 432.393)" fill="white" fill-opacity="0.4"/>
<circle cx="0.690477" cy="0.690477" r="0.690477" transform="matrix(-1 0 0 1 226.594 99.7026)" fill="white" fill-opacity="0.4"/>
<circle cx="0.596974" cy="0.596974" r="0.596974" transform="matrix(-1 0 0 1 99.9141 268.416)" fill="white" fill-opacity="0.4"/>
<circle cx="0.697257" cy="0.697257" r="0.697257" transform="matrix(-1 0 0 1 284.016 424.105)" fill="white" fill-opacity="0.4"/>
<circle cx="0.778728" cy="0.778728" r="0.778728" transform="matrix(-1 0 0 1 329.594 380.892)" fill="white" fill-opacity="0.4"/>
<circle cx="0.882725" cy="0.882725" r="0.882725" transform="matrix(-1 0 0 1 123 333.533)" fill="white" fill-opacity="0.3"/>
<circle cx="0.711451" cy="0.711451" r="0.711451" transform="matrix(-1 0 0 1 97.5391 101.479)" fill="white" fill-opacity="0.4"/>
<circle cx="0.706451" cy="0.706451" r="0.706451" transform="matrix(-1 0 0 1 233.102 395.691)" fill="white" fill-opacity="0.3"/>
<circle cx="0.756572" cy="0.756572" r="0.756572" transform="matrix(-1 0 0 1 46.6328 392.731)" fill="white" fill-opacity="0.4"/>
<circle cx="0.693902" cy="0.693902" r="0.693902" transform="matrix(-1 0 0 1 237.25 114.502)" fill="white" fill-opacity="0.4"/>
<circle cx="0.729233" cy="0.729233" r="0.729233" transform="matrix(-1 0 0 1 358.602 28.0742)" fill="white" fill-opacity="0.3"/>
<circle cx="0.765212" cy="0.765212" r="0.765212" transform="matrix(-1 0 0 1 227.188 151.796)" fill="white" fill-opacity="0.3"/>
<circle cx="0.869681" cy="0.869681" r="0.869681" transform="matrix(-1 0 0 1 247.906 390.955)" fill="white" fill-opacity="0.4"/>
<circle cx="0.718168" cy="0.718168" r="0.718168" transform="matrix(-1 0 0 1 153.781 77.7998)" fill="white" fill-opacity="0.4"/>
<circle cx="0.84679" cy="0.84679" r="0.84679" transform="matrix(-1 0 0 1 312.43 357.805)" fill="white" fill-opacity="0.3"/>
<circle cx="0.858873" cy="0.858873" r="0.858873" transform="matrix(-1 0 0 1 247.906 434.761)" fill="white" fill-opacity="0.3"/>
<circle cx="0.627863" cy="0.627863" r="0.627863" transform="matrix(-1 0 0 1 284.016 313.406)" fill="white" fill-opacity="0.3"/>
<circle cx="0.715796" cy="0.715796" r="0.715796" transform="matrix(-1 0 0 1 282.242 324.654)" fill="white" fill-opacity="0.4"/>
<circle cx="0.852779" cy="0.852779" r="0.852779" transform="matrix(-1 0 0 1 58.4688 253.617)" fill="white" fill-opacity="0.4"/>
<circle cx="0.661517" cy="0.661517" r="0.661517" transform="matrix(-1 0 0 1 201.141 319.918)" fill="white" fill-opacity="0.4"/>
<circle cx="0.859218" cy="0.859218" r="0.859218" transform="matrix(-1 0 0 1 317.164 348.924)" fill="white" fill-opacity="0.4"/>
<circle cx="0.696622" cy="0.696622" r="0.696622" transform="matrix(-1 0 0 1 172.727 227.57)" fill="white" fill-opacity="0.4"/>
<circle cx="0.602129" cy="0.602129" r="0.602129" transform="matrix(-1 0 0 1 353.273 422.33)" fill="white" fill-opacity="0.4"/>
<circle cx="0.831583" cy="0.831583" r="0.831583" transform="matrix(-1 0 0 1 5.78906 116.278)" fill="white" fill-opacity="0.3"/>
<circle cx="0.848888" cy="0.848888" r="0.848888" transform="matrix(-1 0 0 1 308.875 234.674)" fill="white" fill-opacity="0.3"/>
<circle cx="0.803339" cy="0.803339" r="0.803339" transform="matrix(-1 0 0 1 128.914 328.798)" fill="white" fill-opacity="0.4"/>
<circle cx="0.735984" cy="0.735984" r="0.735984" transform="matrix(-1 0 0 1 324.266 7.94727)" fill="white" fill-opacity="0.3"/>
<circle cx="0.806592" cy="0.806592" r="0.806592" transform="matrix(-1 0 0 1 1.04688 190.867)" fill="white" fill-opacity="0.3"/>
<circle cx="0.804401" cy="0.804401" r="0.804401" transform="matrix(-1 0 0 1 282.242 87.2715)" fill="white" fill-opacity="0.3"/>
<circle cx="0.671462" cy="0.671462" r="0.671462" transform="matrix(-1 0 0 1 6.375 26.2983)" fill="white" fill-opacity="0.4"/>
<circle cx="0.859953" cy="0.859953" r="0.859953" transform="matrix(-1 0 0 1 343.805 39.3218)" fill="white" fill-opacity="0.4"/>
<circle cx="0.647362" cy="0.647362" r="0.647362" transform="matrix(-1 0 0 1 249.68 270.785)" fill="white" fill-opacity="0.4"/>
<circle cx="0.85128" cy="0.85128" r="0.85128" transform="matrix(-1 0 0 1 117.078 57.0811)" fill="white" fill-opacity="0.4"/>
<circle cx="0.813803" cy="0.813803" r="0.813803" transform="matrix(-1 0 0 1 89.2578 222.833)" fill="white" fill-opacity="0.4"/>
<circle cx="0.785658" cy="0.785658" r="0.785658" transform="matrix(-1 0 0 1 131.289 391.547)" fill="white" fill-opacity="0.3"/>
<circle cx="0.784446" cy="0.784446" r="0.784446" transform="matrix(-1 0 0 1 11.7031 37.5459)" fill="white" fill-opacity="0.4"/>
<circle cx="0.678364" cy="0.678364" r="0.678364" transform="matrix(-1 0 0 1 74.4531 74.8403)" fill="white" fill-opacity="0.3"/>
<circle cx="0.802016" cy="0.802016" r="0.802016" transform="matrix(-1 0 0 1 230.148 215.73)" fill="white" fill-opacity="0.3"/>
<circle cx="0.763236" cy="0.763236" r="0.763236" transform="matrix(-1 0 0 1 304.141 210.994)" fill="white" fill-opacity="0.3"/>
<circle cx="0.676482" cy="0.676482" r="0.676482" transform="matrix(-1 0 0 1 115.305 84.312)" fill="white" fill-opacity="0.4"/>
<circle cx="0.648472" cy="0.648472" r="0.648472" transform="matrix(-1 0 0 1 199.359 15.6426)" fill="white" fill-opacity="0.3"/>
<circle cx="0.698949" cy="0.698949" r="0.698949" transform="matrix(-1 0 0 1 112.344 250.065)" fill="white" fill-opacity="0.4"/>
<circle cx="0.846621" cy="0.846621" r="0.846621" transform="matrix(-1 0 0 1 134.836 312.222)" fill="white" fill-opacity="0.4"/>
<circle cx="0.727048" cy="0.727048" r="0.727048" transform="matrix(-1 0 0 1 188.117 99.7026)" fill="white" fill-opacity="0.4"/>
<circle cx="0.82322" cy="0.82322" r="0.82322" transform="matrix(-1 0 0 1 246.719 253.025)" fill="white" fill-opacity="0.3"/>
<circle cx="0.853602" cy="0.853602" r="0.853602" transform="matrix(-1 0 0 1 224.227 424.105)" fill="white" fill-opacity="0.4"/>
<circle cx="0.614002" cy="0.614002" r="0.614002" transform="matrix(-1 0 0 1 333.148 100.887)" fill="white" fill-opacity="0.3"/>
<circle cx="0.69723" cy="0.69723" r="0.69723" transform="matrix(-1 0 0 1 163.25 266.048)" fill="white" fill-opacity="0.4"/>
<circle cx="0.78747" cy="0.78747" r="0.78747" transform="matrix(-1 0 0 1 140.164 410.49)" fill="white" fill-opacity="0.4"/>
<circle cx="0.798039" cy="0.798039" r="0.798039" transform="matrix(-1 0 0 1 179.234 30.4424)" fill="white" fill-opacity="0.4"/>
<circle cx="0.705573" cy="0.705573" r="0.705573" transform="matrix(-1 0 0 1 320.719 0.251465)" fill="white" fill-opacity="0.4"/>
<circle cx="0.628061" cy="0.628061" r="0.628061" transform="matrix(-1 0 0 1 33.6094 409.898)" fill="white" fill-opacity="0.4"/>
<circle cx="0.613189" cy="0.613189" r="0.613189" transform="matrix(-1 0 0 1 162.664 260.128)" fill="white" fill-opacity="0.4"/>
<circle cx="0.745889" cy="0.745889" r="0.745889" transform="matrix(-1 0 0 1 263.297 312.814)" fill="white" fill-opacity="0.3"/>
<circle cx="0.819658" cy="0.819658" r="0.819658" transform="matrix(-1 0 0 1 305.914 303.343)" fill="white" fill-opacity="0.4"/>
<circle cx="0.634724" cy="0.634724" r="0.634724" transform="matrix(-1 0 0 1 14.6641 342.413)" fill="white" fill-opacity="0.4"/>
<circle cx="0.622914" cy="0.622914" r="0.622914" transform="matrix(-1 0 0 1 5.78906 439.497)" fill="white" fill-opacity="0.3"/>
<circle cx="0.788845" cy="0.788845" r="0.788845" transform="matrix(-1 0 0 1 361.562 165.413)" fill="white" fill-opacity="0.3"/>
<circle cx="0.613337" cy="0.613337" r="0.613337" transform="matrix(-1 0 0 1 108.195 298.606)" fill="white" fill-opacity="0.3"/>
<circle cx="0.830232" cy="0.830232" r="0.830232" transform="matrix(-1 0 0 1 93.3984 136.998)" fill="white" fill-opacity="0.3"/>
<circle cx="0.773981" cy="0.773981" r="0.773981" transform="matrix(-1 0 0 1 301.773 74.248)" fill="white" fill-opacity="0.4"/>
<circle cx="0.614725" cy="0.614725" r="0.614725" transform="matrix(-1 0 0 1 282.242 8.53906)" fill="white" fill-opacity="0.4"/>
<circle cx="0.622524" cy="0.622524" r="0.622524" transform="matrix(-1 0 0 1 166.211 402.203)" fill="white" fill-opacity="0.4"/>
<circle cx="0.758062" cy="0.758062" r="0.758062" transform="matrix(-1 0 0 1 163.25 320.51)" fill="white" fill-opacity="0.3"/>
<circle cx="0.593954" cy="0.593954" r="0.593954" transform="matrix(-1 0 0 1 235.469 4.9873)" fill="white" fill-opacity="0.4"/>
<circle cx="0.771508" cy="0.771508" r="0.771508" transform="matrix(-1 0 0 1 307.695 109.175)" fill="white" fill-opacity="0.4"/>
<circle cx="0.771508" cy="0.771508" r="0.771508" transform="matrix(-1 0 0 1 307.695 109.175)" fill="white" fill-opacity="0.4"/>
<circle cx="0.737588" cy="0.737588" r="0.737588" transform="matrix(-1 0 0 1 144.898 334.125)" fill="white" fill-opacity="0.3"/>
<circle cx="0.737588" cy="0.737588" r="0.737588" transform="matrix(-1 0 0 1 144.898 334.126)" fill="white" fill-opacity="0.3"/>
</g>
</g>
<defs>
<clipPath id="clip0_12178_18088">
<rect width="360" height="440" fill="white" transform="matrix(-1 0 0 1 360 0)"/>
</clipPath>
</defs>
</svg>
