<svg width="15" height="19" viewBox="0 0 15 19" fill="none" xmlns="http://www.w3.org/2000/svg">
<path d="M6.72949 18.3333C6.3406 18.3333 5.97602 18.25 5.63574 18.0833C5.29546 17.9167 5.00727 17.6806 4.77116 17.375L0.229492 11.6042L0.625326 11.1875C0.903103 10.8958 1.23644 10.7222 1.62533 10.6667C2.01421 10.6111 2.37533 10.6875 2.70866 10.8958L4.25033 11.8333V5.00001C4.25033 4.7639 4.33019 4.56598 4.48991 4.40626C4.64963 4.24654 4.84755 4.16668 5.08366 4.16668C5.31977 4.16668 5.52116 4.24654 5.68783 4.40626C5.85449 4.56598 5.93783 4.7639 5.93783 5.00001V14.8333L3.91699 13.5833L6.08366 16.3542C6.16699 16.4514 6.26421 16.5278 6.37533 16.5833C6.48644 16.6389 6.60449 16.6667 6.72949 16.6667H11.3337C11.792 16.6667 12.1844 16.5035 12.5107 16.1771C12.8371 15.8507 13.0003 15.4583 13.0003 15V11.6667C13.0003 11.4306 12.9205 11.2326 12.7607 11.0729C12.601 10.9132 12.4031 10.8333 12.167 10.8333H7.60449V9.16668H12.167C12.8614 9.16668 13.4517 9.40973 13.9378 9.89584C14.4239 10.382 14.667 10.9722 14.667 11.6667V15C14.667 15.9167 14.3406 16.7014 13.6878 17.3542C13.035 18.007 12.2503 18.3333 11.3337 18.3333H6.72949ZM1.47949 7.08334C1.29894 6.77779 1.16005 6.44793 1.06283 6.09376C0.965603 5.73959 0.916992 5.37501 0.916992 5.00001C0.916992 3.84723 1.32324 2.86459 2.13574 2.05209C2.94824 1.23959 3.93088 0.833344 5.08366 0.833344C6.23644 0.833344 7.21908 1.23959 8.03158 2.05209C8.84408 2.86459 9.25033 3.84723 9.25033 5.00001C9.25033 5.37501 9.20171 5.73959 9.10449 6.09376C9.00727 6.44793 8.86838 6.77779 8.68783 7.08334L7.25033 6.25001C7.36144 6.05557 7.44477 5.85765 7.50033 5.65626C7.55588 5.45487 7.58366 5.23612 7.58366 5.00001C7.58366 4.30557 7.3406 3.71529 6.85449 3.22918C6.36838 2.74307 5.7781 2.50001 5.08366 2.50001C4.38921 2.50001 3.79894 2.74307 3.31283 3.22918C2.82671 3.71529 2.58366 4.30557 2.58366 5.00001C2.58366 5.23612 2.61144 5.45487 2.66699 5.65626C2.72255 5.85765 2.80588 6.05557 2.91699 6.25001L1.47949 7.08334Z" fill="#242424"/>
</svg>
