<svg width="20" height="17" viewBox="0 0 20 17" fill="none" xmlns="http://www.w3.org/2000/svg">
<path d="M2.5026 17.0026C2.04427 17.0026 1.65191 16.8394 1.32552 16.513C0.999132 16.1866 0.835938 15.7943 0.835938 15.3359V5.33594C0.835938 4.8776 0.999132 4.48524 1.32552 4.15885C1.65191 3.83247 2.04427 3.66927 2.5026 3.66927H5.1276L6.66927 2.0026H11.6693V3.66927H7.39844L5.8776 5.33594H2.5026V15.3359H15.8359V7.83594H17.5026V15.3359C17.5026 15.7943 17.3394 16.1866 17.013 16.513C16.6866 16.8394 16.2943 17.0026 15.8359 17.0026H2.5026ZM15.8359 5.33594V3.66927H14.1693V2.0026H15.8359V0.335938H17.5026V2.0026H19.1693V3.66927H17.5026V5.33594H15.8359ZM9.16927 14.0859C10.2109 14.0859 11.0964 13.7214 11.8255 12.9922C12.5547 12.263 12.9193 11.3776 12.9193 10.3359C12.9193 9.29427 12.5547 8.40885 11.8255 7.67969C11.0964 6.95052 10.2109 6.58594 9.16927 6.58594C8.1276 6.58594 7.24219 6.95052 6.51302 7.67969C5.78385 8.40885 5.41927 9.29427 5.41927 10.3359C5.41927 11.3776 5.78385 12.263 6.51302 12.9922C7.24219 13.7214 8.1276 14.0859 9.16927 14.0859ZM9.16927 12.4193C8.58594 12.4193 8.09288 12.2179 7.6901 11.8151C7.28733 11.4123 7.08594 10.9193 7.08594 10.3359C7.08594 9.7526 7.28733 9.25955 7.6901 8.85677C8.09288 8.45399 8.58594 8.2526 9.16927 8.2526C9.7526 8.2526 10.2457 8.45399 10.6484 8.85677C11.0512 9.25955 11.2526 9.7526 11.2526 10.3359C11.2526 10.9193 11.0512 11.4123 10.6484 11.8151C10.2457 12.2179 9.7526 12.4193 9.16927 12.4193Z" fill="#6B7280"/>
</svg>
