<svg width="21" height="23" viewBox="0 0 21 23" fill="none" xmlns="http://www.w3.org/2000/svg">
<path d="M7.00312 12.0156C7.60312 8.86563 8.42813 8.04062 11.5781 7.44062C11.9531 7.36562 12.1781 7.06562 12.1781 6.69062C12.1781 6.31562 11.9531 6.01562 11.5781 5.94062C8.42813 5.34062 7.60312 4.51562 7.00312 1.36562C6.92812 0.990625 6.62813 0.765625 6.25313 0.765625C5.87813 0.765625 5.57812 0.990625 5.50313 1.36562C4.90313 4.51562 4.07812 5.34062 0.928125 5.94062C0.628125 6.01562 0.328125 6.31562 0.328125 6.69062C0.328125 7.06562 0.553125 7.36562 0.928125 7.44062C4.07812 8.04062 4.90313 8.86563 5.50313 12.0156C5.57812 12.3906 5.87813 12.6156 6.25313 12.6156C6.62813 12.6156 6.92812 12.3156 7.00312 12.0156Z" fill="#39B26F"/>
<path d="M14.5063 17.2641C12.4062 16.8141 11.9563 16.3641 11.5063 14.2641C11.4313 13.8891 11.1313 13.6641 10.7563 13.6641C10.3813 13.6641 10.0813 13.8891 10.0063 14.2641C9.55625 16.3641 9.10625 16.8141 7.00625 17.2641C6.63125 17.3391 6.40625 17.6391 6.40625 18.0141C6.40625 18.3891 6.63125 18.6891 7.00625 18.7641C9.10625 19.2141 9.55625 19.6641 10.0063 21.7641C10.0813 22.1391 10.3813 22.3641 10.7563 22.3641C11.1313 22.3641 11.4313 22.1391 11.5063 21.7641C11.9563 19.6641 12.4062 19.2141 14.5063 18.7641C14.8813 18.6891 15.1062 18.3891 15.1062 18.0141C15.1062 17.6391 14.8063 17.3391 14.5063 17.2641Z" fill="#39B26F"/>
<path d="M19.9062 9.76875C18.2562 9.46875 17.8812 9.09375 17.5812 7.44375C17.5062 7.06875 17.2062 6.84375 16.8312 6.84375C16.4562 6.84375 16.1562 7.06875 16.0812 7.44375C15.7812 9.09375 15.4062 9.46875 13.7562 9.76875C13.3812 9.84375 13.1562 10.1437 13.1562 10.5187C13.1562 10.8937 13.3812 11.1937 13.7562 11.2687C15.4062 11.5687 15.7812 11.9437 16.0812 13.5938C16.1562 13.9688 16.4562 14.1937 16.8312 14.1937C17.2062 14.1937 17.5062 13.9688 17.5812 13.5938C17.8812 11.9437 18.2562 11.5687 19.9062 11.2687C20.2812 11.1937 20.5062 10.8937 20.5062 10.5187C20.5062 10.1437 20.2812 9.84375 19.9062 9.76875Z" fill="#39B26F"/>
<path d="M2.275 15.9937C2.05 15.7687 1.75 15.6937 1.45 15.8437C1.375 15.8437 1.3 15.9187 1.225 15.9937C1.15 16.0687 1.075 16.1437 1.075 16.2187C1 16.2937 1 16.4437 1 16.5187C1 16.5937 1 16.7437 1.075 16.8187C1.15 16.8937 1.15 16.9687 1.225 17.0437C1.3 17.1187 1.375 17.1937 1.45 17.1937C1.525 17.2687 1.675 17.2687 1.75 17.2687C1.825 17.2687 1.975 17.2687 2.05 17.1937C2.125 17.1187 2.2 17.1187 2.275 17.0437C2.35 16.9687 2.425 16.8937 2.425 16.8187C2.5 16.7437 2.5 16.5937 2.5 16.5187C2.5 16.4437 2.5 16.2937 2.425 16.2187C2.425 16.1437 2.35 16.0687 2.275 15.9937Z" fill="#39B26F"/>
<path d="M19 4.5125C19.225 4.5125 19.375 4.4375 19.525 4.2875C19.675 4.1375 19.75 3.9875 19.75 3.7625C19.75 3.5375 19.675 3.3875 19.525 3.2375C19.45 3.1625 19.375 3.0875 19.3 3.0875C19.15 3.0125 18.925 3.0125 18.7 3.0875C18.625 3.0875 18.55 3.1625 18.475 3.2375C18.325 3.3875 18.25 3.5375 18.25 3.7625C18.25 3.9875 18.325 4.1375 18.475 4.2875C18.625 4.4375 18.775 4.5125 19 4.5125Z" fill="#39B26F"/>
</svg>
