<svg width="33" height="22" viewBox="0 0 33 22" fill="none" xmlns="http://www.w3.org/2000/svg">
<path d="M32.6368 15.3212C32.318 14.1913 31.6318 13.2001 30.6843 12.5063C29.9618 11.9738 29.1181 11.6288 28.2293 11.5038C27.8819 11.4513 27.5294 11.4401 27.1794 11.4688C27.1331 11.4738 26.9006 11.5126 26.8856 11.5026C26.8856 11.5026 26.8731 11.4626 26.8719 11.4588L26.7307 11.0139C26.0457 8.84768 24.7832 6.90133 23.7845 4.87514C24.2407 4.97763 24.9982 5.16763 25.4244 4.89639C25.7657 4.67889 25.9294 4.22265 26.0082 3.84266C26.1182 3.31141 26.0369 2.60019 25.7369 2.1427C25.5819 1.90646 25.3994 1.79397 25.127 1.73897C24.1245 1.54272 23.0983 1.87896 22.2708 2.44394L21.7021 2.90393L20.4721 2.01771C20.4683 1.93646 20.4821 1.85522 20.4758 1.77397C20.4546 1.49523 20.3246 1.23523 20.1121 1.05149C19.8871 0.846497 19.5946 0.783996 19.2984 0.798997L19.2546 0.802747C18.9621 0.866496 18.6971 1.00399 18.5296 1.26149C18.3671 1.50148 18.3096 1.79648 18.3709 2.08022C18.4321 2.36271 18.6071 2.60894 18.8546 2.75895C19.0984 2.90895 19.3921 2.9552 19.6709 2.8902C19.9296 2.83145 20.1558 2.6752 20.3033 2.45396L21.4296 3.27393L21.3583 3.51893L20.5733 3.50393C20.3633 3.50393 20.0296 3.45018 19.8646 3.60892V3.61142C19.7984 3.67767 19.7609 3.76767 19.7609 3.86267C19.7609 3.96266 19.8009 4.05766 19.8696 4.12891C19.9121 4.17141 19.9659 4.20016 20.0234 4.21266C20.1546 4.23641 20.3071 4.22141 20.4396 4.22141L21.2683 4.21891C21.3008 4.21891 21.4183 4.20641 21.4433 4.21891C21.4733 4.23391 21.6383 4.65515 21.6608 4.70513L22.1408 6.0076C22.577 7.30507 22.887 8.64878 22.942 10.0187C23.0045 11.5324 22.697 13.1236 22.0408 14.4899C21.8958 14.7912 21.7196 15.1399 21.4908 15.3874C21.2733 15.6224 20.9308 15.8674 20.6021 15.8774H15.7833C15.6146 15.8774 15.3908 15.9086 15.2271 15.8736H15.2283C15.1733 15.8574 15.1196 15.8361 15.0696 15.8099C14.8284 15.7074 14.6071 15.5649 14.4146 15.3874C13.7971 14.8049 13.5421 13.9862 13.5209 13.155C13.4934 12.1362 13.9209 11.19 14.6134 10.4613C14.7171 10.3525 15.1408 10.02 15.1671 9.92377C15.1896 9.83627 15.1734 9.67878 15.1709 9.58752V9.57127C15.4833 9.53128 15.7421 9.40503 15.9383 9.14754H15.9371C16.0921 8.9313 16.1558 8.66381 16.1171 8.40007L16.0946 8.29508H16.0933C15.9721 7.8476 15.5708 7.53385 15.1083 7.52636L14.2734 7.52886H12.8709L8.15231 7.52761H5.0449C4.90615 7.52761 4.75116 7.51386 4.61617 7.55011V7.55136C4.31618 7.63136 4.06118 7.8326 3.91245 8.10635C3.6512 8.59383 3.8337 9.20009 4.31993 9.46257C4.44117 9.53132 4.57742 9.57007 4.71617 9.57632C4.78367 9.57132 4.85117 9.57382 4.91867 9.58257C2.88371 11.0113 1.27748 13.1361 0.841332 15.6138C0.773833 15.9975 0.756336 16.3812 0.986327 16.7162C1.15757 16.965 1.48382 17.1312 1.77504 17.1825C2.08753 17.2375 2.42879 17.2075 2.74753 17.2012C2.76753 18.2962 3.15625 19.2824 3.94999 20.0511C4.31747 20.4074 4.73497 20.6649 5.19371 20.8798C5.52368 21.0148 5.8687 21.1123 6.22117 21.1711C6.96864 21.2773 7.73239 21.1698 8.42236 20.8623C9.39859 20.4298 10.2048 19.5974 10.5873 18.5974V18.5987C10.7573 18.1612 10.846 17.6974 10.8485 17.2287L18.1472 17.235H20.1484C20.5847 17.235 21.0521 17.2725 21.4797 17.1837C22.2134 17.0325 22.8259 16.6575 23.3633 16.1475L23.3108 16.4687L23.8446 16.1887C23.5496 17.185 23.6846 18.2624 24.1771 19.1724C24.6608 20.0636 25.5383 20.7573 26.5083 21.0449C27.5595 21.3561 28.6357 21.1961 29.592 20.6749C30.4557 20.2036 31.1182 19.3162 31.3907 18.3774C31.6082 17.6287 31.5707 16.8887 31.3507 16.1488L32.7956 16.1525L32.7969 16.1513C32.7606 15.8713 32.7068 15.595 32.6368 15.3212ZM24.7733 2.59038C24.8583 2.41163 24.9633 2.24789 25.1558 2.17787C25.2058 2.16912 25.2583 2.17412 25.3058 2.19412C25.467 2.26912 25.5795 2.51286 25.6332 2.67411C25.7945 3.1541 25.792 3.75034 25.5595 4.20908C25.477 4.37157 25.3657 4.53781 25.1857 4.59656C25.1382 4.60906 25.0882 4.60406 25.0432 4.58406C24.8945 4.51656 24.7857 4.30281 24.7333 4.15658C24.5695 3.70283 24.562 3.0366 24.7733 2.59038ZM8.03483 18.4325C7.71859 18.7225 7.36736 18.9 6.93736 18.945H6.93861C6.49238 18.9888 6.04737 18.8575 5.69739 18.5788C5.25616 18.2176 5.06115 17.7675 5.00365 17.2101L8.5498 17.2163H8.55105C8.5373 17.6713 8.35358 18.1063 8.03483 18.4325ZM12.8897 16.5576C12.6873 16.7801 12.4698 16.8251 12.1848 16.8363L12.2648 16.7613C12.5598 16.4401 12.6198 15.8301 12.6085 15.4101C12.5785 14.2864 12.0735 13.1351 11.2535 12.3639C10.3898 11.5514 9.34357 11.1114 8.17361 11.0002C7.84988 10.9752 7.52614 10.9715 7.20238 10.9865C6.61237 11.034 6.0249 11.114 5.45618 11.2864H5.45493C4.65495 11.5352 3.92246 11.9664 3.31624 12.5439C2.39376 13.4251 1.68252 14.6439 1.66002 15.9451C1.65502 16.2589 1.71752 16.5401 1.93876 16.7713C1.76877 16.7401 1.59628 16.7026 1.45878 16.5876C1.32628 16.4726 1.24378 16.3113 1.22628 16.1363C1.21628 15.9651 1.26503 15.7726 1.30003 15.6064C1.53877 14.4751 2.2025 13.3352 2.97749 12.4877C3.91497 11.4652 5.0287 10.7615 6.40748 10.5203H6.40873C6.72622 10.4703 7.04622 10.4415 7.36746 10.4328C8.86492 10.394 10.2849 10.7615 11.4262 11.7765C12.4162 12.6564 13.0587 13.9477 13.1337 15.2727C13.1562 15.6764 13.1774 16.2389 12.8874 16.5552L12.8897 16.5576ZM28.9607 18.245C28.6869 18.6312 28.2582 18.8462 27.7995 18.9237C27.3595 18.9575 26.9382 18.8687 26.5783 18.6038C26.197 18.3238 25.9683 17.8975 25.9045 17.4325C25.8508 17.0013 25.967 16.5663 26.227 16.2188C26.5295 15.82 26.9395 15.6213 27.4307 15.5551C27.767 15.4963 28.2257 15.6138 28.5019 15.8038C28.8944 16.0738 29.1757 16.4625 29.2632 16.9375H29.2644C29.3457 17.3963 29.2344 17.8688 28.9582 18.2425L28.9607 18.245Z" fill="#6B7280"/>
</svg>
