<svg width="10" height="11" viewBox="0 0 10 11" fill="none" xmlns="http://www.w3.org/2000/svg">
<path d="M5 10.5C4.30833 10.5 3.65833 10.3688 3.05 10.1062C2.44167 9.84375 1.9125 9.4875 1.4625 9.0375C1.0125 8.5875 0.65625 8.05833 0.39375 7.45C0.13125 6.84167 0 6.19167 0 5.5C0 4.80833 0.13125 4.15833 0.39375 3.55C0.65625 2.94167 1.0125 2.4125 1.4625 1.9625C1.9125 1.5125 2.44167 1.15625 3.05 0.89375C3.65833 0.63125 4.30833 0.5 5 0.5C5.69167 0.5 6.34167 0.63125 6.95 0.89375C7.55833 1.15625 8.0875 1.5125 8.5375 1.9625C8.9875 2.4125 9.34375 2.94167 9.60625 3.55C9.86875 4.15833 10 4.80833 10 5.5C10 6.19167 9.86875 6.84167 9.60625 7.45C9.34375 8.05833 8.9875 8.5875 8.5375 9.0375C8.0875 9.4875 7.55833 9.84375 6.95 10.1062C6.34167 10.3688 5.69167 10.5 5 10.5ZM5 9.5C5.45 9.5 5.88333 9.42708 6.3 9.28125C6.71667 9.13542 7.1 8.925 7.45 8.65L1.85 3.05C1.575 3.4 1.36458 3.78333 1.21875 4.2C1.07292 4.61667 1 5.05 1 5.5C1 6.61667 1.3875 7.5625 2.1625 8.3375C2.9375 9.1125 3.88333 9.5 5 9.5ZM8.15 7.95C8.425 7.6 8.63542 7.21667 8.78125 6.8C8.92708 6.38333 9 5.95 9 5.5C9 4.38333 8.6125 3.4375 7.8375 2.6625C7.0625 1.8875 6.11667 1.5 5 1.5C4.55 1.5 4.11667 1.57292 3.7 1.71875C3.28333 1.86458 2.9 2.075 2.55 2.35L8.15 7.95Z" fill="#E02424"/>
</svg>
