<svg width="20" height="16" viewBox="0 0 20 16" fill="none" xmlns="http://www.w3.org/2000/svg">
<path d="M18.7984 6.4269L16.3106 5.09325L18.2976 3.754C18.4102 3.6781 18.4741 3.54804 18.4653 3.41249C18.4565 3.27693 18.3765 3.1562 18.2549 3.09543L12.6511 0.292784C12.5327 0.233539 12.3919 0.239856 12.279 0.309696L10 1.72139L7.721 0.309696C7.60826 0.239856 7.46741 0.233539 7.34892 0.292784L1.74506 3.09548C1.62351 3.15625 1.54343 3.27698 1.53467 3.41254C1.52591 3.54809 1.58974 3.6781 1.70242 3.75405L3.68939 5.0933L1.20156 6.42695C1.08002 6.4921 1.00305 6.61767 1.00009 6.75552C0.997085 6.89337 1.06871 7.0221 1.1873 7.09239L6.73762 10.3813C6.79758 10.4169 6.86493 10.4347 6.93237 10.4347C6.99437 10.4347 7.05647 10.4196 7.11291 10.3894L9.61795 9.04651V14.7463L4.79176 12.3276V10.1235C4.79176 9.91251 4.62075 9.74145 4.4097 9.74145C4.19865 9.74145 4.02764 9.91251 4.02764 10.1235V12.5635C4.02764 12.7081 4.1093 12.8403 4.23854 12.9051L9.8288 15.7066C9.83242 15.7084 9.83619 15.7097 9.8398 15.7114C9.84576 15.7141 9.85172 15.7167 9.85779 15.7191C9.86726 15.7229 9.87679 15.7263 9.88641 15.7293C9.89227 15.7311 9.89808 15.733 9.90404 15.7345C9.91453 15.7373 9.92513 15.7393 9.93578 15.7411C9.94118 15.742 9.94647 15.7432 9.95193 15.7439C9.96624 15.7457 9.98066 15.7467 9.99507 15.7468C9.9968 15.7468 9.99849 15.7472 10.0002 15.7472C10.0165 15.7472 10.0328 15.7459 10.0491 15.7437C10.0531 15.7432 10.0571 15.7423 10.0611 15.7416C10.0731 15.7397 10.0849 15.7373 10.0968 15.7342C10.1023 15.7328 10.1076 15.731 10.1131 15.7294C10.1232 15.7262 10.1332 15.7226 10.1432 15.7186C10.1492 15.7162 10.155 15.7137 10.1609 15.711C10.1643 15.7094 10.1678 15.7083 10.1711 15.7066L15.7614 12.905C15.8906 12.8403 15.9723 12.708 15.9723 12.5635V10.1235C15.9723 9.91246 15.8013 9.7414 15.5902 9.7414C15.3792 9.7414 15.2082 9.91246 15.2082 10.1235V12.3276L10.382 14.7462V9.04641L12.8871 10.3893C12.9435 10.4195 13.0056 10.4346 13.0676 10.4346C13.1351 10.4346 13.2024 10.4168 13.2624 10.3812L18.8127 7.09229C18.9313 7.02204 19.0028 6.89326 18.9999 6.75542C18.997 6.61757 18.92 6.49205 18.7984 6.4269ZM10 7.964L5.21213 5.12692L10 2.60272L14.7879 5.12692L10 7.964ZM12.5001 1.07163L17.3278 3.48615L15.5662 4.67344L10.7686 2.1441L12.5001 1.07163ZM7.49991 1.07163L9.23136 2.14415L4.4337 4.67349L2.67214 3.48615L7.49991 1.07163ZM6.94175 9.61399L2.15962 6.78028L4.44027 5.55768L9.22239 8.39135L6.94175 9.61399ZM13.0582 9.61399L10.7776 8.3914L15.5597 5.55773L17.8404 6.78033L13.0582 9.61399Z" fill="#35973D" stroke="#35973D" stroke-width="0.4"/>
</svg>
