<svg width="14" height="15" viewBox="0 0 14 15" fill="none" xmlns="http://www.w3.org/2000/svg">
<path d="M12.9625 14.25C11.4 14.25 9.85625 13.9094 8.33125 13.2281C6.80625 12.5469 5.41875 11.5813 4.16875 10.3313C2.91875 9.08125 1.95312 7.69375 1.27188 6.16875C0.590625 4.64375 0.25 3.1 0.25 1.5375C0.25 1.3125 0.325 1.125 0.475 0.975C0.625 0.825 0.8125 0.75 1.0375 0.75H4.075C4.25 0.75 4.40625 0.809375 4.54375 0.928125C4.68125 1.04688 4.7625 1.1875 4.7875 1.35L5.275 3.975C5.3 4.175 5.29375 4.34375 5.25625 4.48125C5.21875 4.61875 5.15 4.7375 5.05 4.8375L3.23125 6.675C3.48125 7.1375 3.77813 7.58438 4.12188 8.01563C4.46563 8.44688 4.84375 8.8625 5.25625 9.2625C5.64375 9.65 6.05 10.0094 6.475 10.3406C6.9 10.6719 7.35 10.975 7.825 11.25L9.5875 9.4875C9.7 9.375 9.84688 9.29063 10.0281 9.23438C10.2094 9.17813 10.3875 9.1625 10.5625 9.1875L13.15 9.7125C13.325 9.7625 13.4688 9.85313 13.5813 9.98438C13.6938 10.1156 13.75 10.2625 13.75 10.425V13.4625C13.75 13.6875 13.675 13.875 13.525 14.025C13.375 14.175 13.1875 14.25 12.9625 14.25ZM2.51875 5.25L3.75625 4.0125L3.4375 2.25H1.76875C1.83125 2.7625 1.91875 3.26875 2.03125 3.76875C2.14375 4.26875 2.30625 4.7625 2.51875 5.25ZM9.23125 11.9625C9.71875 12.175 10.2156 12.3438 10.7219 12.4688C11.2281 12.5938 11.7375 12.675 12.25 12.7125V11.0625L10.4875 10.7063L9.23125 11.9625Z" fill="#35973D"/>
</svg>
