<svg width="33" height="22" viewBox="0 0 33 22" fill="none" xmlns="http://www.w3.org/2000/svg">
<path d="M22.2059 0.773581H10.9241C8.78838 0.773581 6.88546 2.14504 6.21107 4.17223L5.01106 7.77803L4.59535 6.33657C4.39248 5.63369 3.86248 5.16513 3.2696 5.16513H1.18386C0.910996 5.16513 0.626717 5.43085 0.552403 5.76228C0.48383 6.06514 0.445257 6.25374 0.415257 6.4137C0.346684 6.77228 0.493829 7.21087 0.746692 7.39515C0.986697 7.54944 1.25526 7.62087 1.52528 7.6023H3.66102C3.91388 7.6023 4.14816 7.77373 4.27389 8.04947L4.46104 8.45948C3.75673 8.66377 3.24531 9.30949 3.24531 10.0809V19.6939C3.24531 20.5425 4.02104 21.2268 4.98534 21.2268H6.29108C7.25537 21.2268 8.03111 20.5439 8.03111 19.6939V18.2239H24.7643V19.6939C24.7643 20.5425 25.5401 21.2268 26.5044 21.2268H27.8101C28.7744 21.2268 29.5501 20.5439 29.5501 19.6939V10.0795C29.5501 9.30803 29.0373 8.66231 28.3344 8.45802L28.5215 8.04801L28.523 8.04944C28.6487 7.77371 28.883 7.60227 29.1358 7.60227H31.2716C31.5416 7.62084 31.8102 7.54941 32.0502 7.39512C32.303 7.21083 32.4502 6.77226 32.3816 6.41367C32.3516 6.2551 32.313 6.06652 32.2445 5.76225C32.1702 5.43224 31.8845 5.1651 31.613 5.1651H29.5273C28.9344 5.1651 28.4044 5.63366 28.2015 6.33654L27.7858 7.77799L26.4801 3.85636C25.8686 2.01777 24.1429 0.773438 22.2055 0.773438L22.2059 0.773581ZM10.9241 2.1879H22.2059C23.5402 2.1879 24.7188 3.03791 25.1388 4.30367L26.5003 8.39244H6.29708L7.55283 4.61966C8.03711 3.16533 9.39142 2.18819 10.9243 2.18819L10.9241 2.1879ZM5.81389 11.4867H6.32963C6.31963 11.5025 6.31249 11.5182 6.30821 11.5353V13.5154C6.13106 13.3968 5.98249 13.2382 5.89962 13.0639C5.71247 12.6711 5.56676 12.4025 5.42104 12.1339C5.22818 11.7782 5.40818 11.4867 5.81247 11.4867L5.81389 11.4867ZM6.70677 11.4867H8.75967C9.1011 11.4867 9.43399 11.6025 9.70111 11.8167L10.1326 12.161C10.4854 12.4439 10.6897 12.871 10.6897 13.3225C10.6711 13.4482 10.604 13.5625 10.5011 13.6396C10.3983 13.7154 10.2697 13.7482 10.1425 13.7296H6.93535C6.86106 13.7296 6.78677 13.7168 6.71106 13.6982C6.71106 13.6939 6.71248 13.6896 6.71248 13.6854V11.5367C6.71248 11.5196 6.70963 11.5025 6.70534 11.4867L6.70677 11.4867ZM24.5701 11.4867H26.6372C26.6272 11.5025 26.6201 11.5182 26.6158 11.5353V13.6853C26.6172 13.6896 26.6187 13.6939 26.6201 13.6982C26.5444 13.7182 26.4672 13.7311 26.393 13.7311H23.1872L23.1858 13.7296C23.06 13.7482 22.93 13.7168 22.8286 13.6396C22.7257 13.5639 22.6572 13.4496 22.6386 13.3225C22.6386 12.871 22.8443 12.4439 23.1972 12.1625L23.6286 11.8182V11.8167C23.8958 11.6039 24.2272 11.4867 24.5701 11.4867ZM27.0144 11.4867H27.5159C27.9202 11.4867 28.1002 11.7796 27.9073 12.1339C27.7616 12.4025 27.6158 12.6711 27.4287 13.0639C27.3458 13.2382 27.1973 13.3968 27.0201 13.5168V11.5353C27.0201 11.5196 27.0187 11.5025 27.0144 11.4867ZM13.6597 14.9025H18.8442C19.1413 14.9025 19.3814 15.1411 19.3814 15.4397V16.6897C19.3814 16.9869 19.1428 17.2269 18.8442 17.2269L13.6583 17.2255C13.3611 17.2255 13.1211 16.9869 13.1211 16.6883V15.4382C13.1211 15.1411 13.3597 14.9011 13.6583 14.9011L13.6597 14.9025Z" fill="#6B7280"/>
</svg>
