<svg width="20" height="20" viewBox="0 0 20 20" fill="none" xmlns="http://www.w3.org/2000/svg">
<g clip-path="url(#clip0_10662_3945)">
<path d="M10 20C15.5228 20 20 15.5228 20 10C20 4.47715 15.5228 0 10 0C4.47715 0 0 4.47715 0 10C0 15.5228 4.47715 20 10 20Z" fill="#FED056"/>
<path d="M10 18.1484C14.5003 18.1484 18.1484 14.5003 18.1484 10C18.1484 5.49974 14.5003 1.85156 10 1.85156C5.49974 1.85156 1.85156 5.49974 1.85156 10C1.85156 14.5003 5.49974 18.1484 10 18.1484Z" fill="#FEB635"/>
<path d="M18.1484 10.0039C18.1484 14.4961 14.4922 18.1523 10 18.1523C8.53516 18.1523 7.16406 17.7656 5.97656 17.0859C7.07031 17.6328 8.30469 17.9414 9.60938 17.9414C14.1016 17.9414 17.7578 14.2852 17.7578 9.79297C17.7578 6.76562 16.0938 4.11719 13.6328 2.71484C16.3086 4.05078 18.1484 6.8125 18.1484 10.0039ZM10.5547 2.23828C12.1602 2.23828 13.6562 2.70703 14.9141 3.50781C13.5469 2.47656 11.8438 1.85938 10 1.85938C5.50781 1.85938 1.85156 5.51172 1.85156 10.0078C1.85156 12.9062 3.375 15.4609 5.66406 16.8984C3.6875 15.4102 2.40625 13.0469 2.40625 10.3867C2.40625 5.89453 6.0625 2.23828 10.5547 2.23828Z" fill="#FC9924"/>
<path d="M10.7739 6.65772L11.3755 8.50537C11.4497 8.73194 11.6645 8.88819 11.9028 8.88819H13.8442C14.3794 8.88819 14.6059 9.57569 14.1684 9.89209L12.602 11.0288C12.4067 11.1694 12.3247 11.4194 12.4028 11.6499L13.0044 13.4976C13.1723 14.0093 12.5825 14.4351 12.1528 14.1187L10.5825 12.978C10.3872 12.8374 10.1255 12.8374 9.93016 12.978L8.35985 14.1187C7.92235 14.4351 7.34031 14.0093 7.50828 13.4976L8.10984 11.6499C8.18406 11.4233 8.10203 11.1694 7.91063 11.0288L6.32469 9.88819C5.88719 9.57178 6.11375 8.88428 6.64891 8.88428H8.59031C8.82859 8.88428 9.04344 8.72803 9.11766 8.50147L9.71922 6.65381C9.88328 6.146 10.6098 6.146 10.7739 6.65772Z" fill="#FC9924"/>
<path d="M10.2817 6.15723L10.8833 8.00488C10.9575 8.23145 11.1723 8.3877 11.4106 8.3877H13.352C13.8872 8.3877 14.1138 9.0752 13.6763 9.3916L12.1059 10.5322C11.9106 10.6729 11.8286 10.9229 11.9067 11.1533L12.5083 13.001C12.6763 13.5127 12.0864 13.9385 11.6567 13.6221L10.0864 12.4814C9.8911 12.3408 9.62938 12.3408 9.43406 12.4814L7.85203 13.6221C7.41453 13.9385 6.8325 13.5127 7.00047 13.001L7.60203 11.1533C7.67625 10.9268 7.59422 10.6729 7.40281 10.5322L5.8325 9.3916C5.395 9.0752 5.62156 8.3877 6.15672 8.3877H8.09813C8.33641 8.3877 8.55125 8.23145 8.62547 8.00488L9.22703 6.15723C9.38719 5.64551 10.1138 5.64551 10.2817 6.15723Z" fill="#FED056"/>
</g>
<defs>
<clipPath id="clip0_10662_3945">
<rect width="20" height="20" fill="white"/>
</clipPath>
</defs>
</svg>
