<svg width="36" height="36" viewBox="0 0 36 36" fill="none" xmlns="http://www.w3.org/2000/svg">
<path d="M17.3401 24.6509C17.3401 28.1925 20.2186 31.0711 23.7573 31.0711C27.2959 31.0711 30.1773 28.1926 30.1773 24.6509C30.1773 21.1093 27.2959 18.2307 23.7573 18.2307C20.2186 18.2307 17.3401 21.1094 17.3401 24.6509ZM18.827 24.6538C18.827 21.9335 21.0374 19.7205 23.7573 19.7205C26.4746 19.7205 28.6905 21.9337 28.6905 24.6538C28.6905 27.3739 26.4746 29.5871 23.7573 29.5871C21.0402 29.5871 18.827 27.374 18.827 24.6538Z" fill="white" stroke="white" stroke-width="0.351"/>
<path d="M22.5198 25.3044C22.5198 25.5575 22.7262 25.7638 22.9793 25.7638C23.2335 25.7638 23.4388 25.5563 23.4388 25.3015V21.1355C23.4388 20.8824 23.2324 20.6761 22.9793 20.6761C22.7262 20.6761 22.5198 20.8824 22.5198 21.1355V25.3044Z" fill="white" stroke="white" stroke-width="0.351"/>
<path d="M25.0368 27.9902L25.0368 27.9902L25.04 27.9933C25.1283 28.0772 25.2422 28.1239 25.3625 28.1239C25.4735 28.1239 25.5952 28.0842 25.687 27.9886C25.8647 27.8092 25.8642 27.5203 25.6854 27.3416L23.3029 24.959C23.1236 24.7797 22.8336 24.7797 22.6543 24.959C22.475 25.1383 22.475 25.4283 22.6543 25.6076L25.0368 27.9902Z" fill="white" stroke="white" stroke-width="0.351"/>
<path fill-rule="evenodd" clip-rule="evenodd" d="M17.0472 28.5915C17.4246 28.5999 17.7262 28.9089 17.7262 29.2864C17.7262 29.6639 17.4245 29.9717 17.0472 29.9801H8.1047C7.51221 29.9837 6.94617 29.7348 6.54597 29.2972C6.14696 28.8584 5.95228 28.2717 6.00996 27.6814L7.45332 11.9963C7.55067 10.9119 8.45922 10.0824 9.54806 10.0836H10.6465V8.92349C10.6597 7.15986 11.6091 5.53564 13.1379 4.65821C14.6678 3.7806 16.5473 3.7806 18.0773 4.65821C19.6061 5.53583 20.5555 7.15998 20.5687 8.92349V10.0824H21.6671L21.6683 10.0836C22.756 10.0824 23.6645 10.9131 23.7619 11.9975L24.1897 16.6487C24.2174 17.025 23.9385 17.3532 23.5624 17.3869C23.1874 17.4217 22.8545 17.1488 22.8136 16.7738L22.3858 12.1225C22.3521 11.7511 22.0397 11.4673 21.6683 11.4697H20.5699V14.1819C20.5699 14.5654 20.2598 14.8756 19.8765 14.8756C19.4943 14.8756 19.183 14.5654 19.183 14.1819V11.4697H12.0336V14.1819C12.0252 14.5594 11.7175 14.8611 11.3402 14.8611C10.9628 14.8611 10.6539 14.5594 10.6467 14.1819V11.4697H9.54828C9.17573 11.4673 8.86444 11.7511 8.82961 12.1213L7.38745 27.8065C7.36462 28.0096 7.42952 28.2116 7.56773 28.3619C7.70473 28.5134 7.90061 28.5963 8.10493 28.5915L17.0472 28.5915ZM12.0332 10.0839H19.1814V8.9238C19.1814 6.94978 17.5818 5.34852 15.6073 5.34852C13.6339 5.34852 12.0332 6.94984 12.0332 8.9238V10.0839Z" fill="white"/>
<path fill-rule="evenodd" clip-rule="evenodd" d="M17.0556 28.1853C17.6538 28.1987 18.1312 28.6881 18.1312 29.2857C18.1312 29.8842 17.6529 30.3716 17.0556 30.3849L17.0466 30.3851L8.10525 30.385C7.39774 30.389 6.72284 30.0917 6.24602 29.5703L6.24524 29.5694C5.76943 29.0462 5.53706 28.3465 5.60552 27.6425L5.60564 27.6413L7.0487 11.9594C7.16507 10.6661 8.2489 9.67611 9.54745 9.67732L9.23285 12.1587M10.2403 10.083H10.6459V8.92284C10.6591 7.15921 11.6085 5.53499 13.1372 4.65756C14.6671 3.77994 16.5467 3.77994 18.0767 4.65756C19.6054 5.53517 20.5548 7.15933 20.5681 8.92284V10.0818H21.6665L21.6677 10.083C22.7554 10.0818 23.6639 10.9125 23.7613 11.9969L24.1891 16.6481C24.2167 17.0244 23.9379 17.3526 23.5617 17.3862C23.1868 17.4211 22.8539 17.1482 22.813 16.7731L22.3852 12.1219C22.3515 11.7504 22.0391 11.4667 21.6677 11.4691H20.5693V14.1812C20.5693 14.5647 20.2592 14.8749 19.8758 14.8749C19.4937 14.8749 19.1824 14.5647 19.1824 14.1812V11.4691H12.033V14.1812C12.0246 14.5587 11.7169 14.8605 11.3395 14.8605C10.9622 14.8605 10.6533 14.5587 10.6461 14.1812V11.4691H9.54767C9.17512 11.4667 8.86383 11.7504 8.829 12.1207L7.38684 27.8058C7.36401 28.009 7.4289 28.2109 7.56711 28.3612C7.70412 28.5127 7.9 28.5956 8.10432 28.5908L17.0466 28.5909C17.4239 28.5993 17.7256 28.9082 17.7256 29.2857C17.7256 29.6632 17.4239 29.971 17.0466 29.9794H8.10409C7.51159 29.983 6.94556 29.7342 6.54535 29.2965C6.14635 28.8577 5.95166 28.2711 6.00935 27.6808L7.45271 11.9957M9.23285 12.1587L7.79002 27.8511C7.78012 27.9392 7.8081 28.024 7.86568 28.0866L7.86796 28.0891C7.92464 28.1518 8.00662 28.1874 8.09477 28.1853L8.10432 28.1851C8.10432 28.1851 13.5599 28.1852 17.0556 28.1853M9.23285 12.1587C9.24826 11.9965 9.38437 11.8737 9.54505 11.8747L10.2405 11.8747V14.1812L10.2405 14.189C10.252 14.7883 10.7421 15.2661 11.3395 15.2661C11.9382 15.2661 12.4252 14.7875 12.4385 14.1903L12.4386 11.8747H18.7768V14.1812C18.7768 14.7891 19.27 15.2805 19.8758 15.2805C20.4834 15.2805 20.9749 14.7886 20.9749 14.1812V11.8747L21.6677 11.8747L21.6703 11.8747C21.8302 11.8737 21.9665 11.9963 21.9812 12.1585L22.4091 16.8103L22.4098 16.817C22.4745 17.4109 23.0022 17.8452 23.5986 17.7902C24.1949 17.7365 24.6375 17.2155 24.5936 16.6184L24.1653 11.9606C24.0544 10.7256 23.0613 9.76596 21.8416 9.68313L21.8346 9.67612H20.9737L20.9737 8.92284L20.9737 8.9198C20.9594 7.012 19.9324 5.25513 18.2787 4.30577C16.6237 3.35646 14.5903 3.35638 12.9354 4.30571C11.2817 5.25488 10.2546 7.01189 10.2403 8.9198L10.2403 9.67732H9.54745M19.1807 8.92315C19.1807 6.94913 17.5812 5.34787 15.6066 5.34787C13.6333 5.34787 12.0325 6.94919 12.0325 8.92315V10.0833H19.1807V8.92315ZM18.7751 9.67762V8.92315C18.7751 7.17294 17.3569 5.7535 15.6066 5.7535C13.8574 5.7535 12.4382 7.17308 12.4382 8.92315V9.67762H18.7751Z" fill="white"/>
</svg>
