<svg width="23" height="16" viewBox="0 0 23 16" fill="none" xmlns="http://www.w3.org/2000/svg">
<path d="M0.799927 16V13.2C0.799927 12.6333 0.94576 12.1125 1.23743 11.6375C1.52909 11.1625 1.91659 10.8 2.39993 10.55C3.43326 10.0333 4.48326 9.64583 5.54993 9.3875C6.61659 9.12917 7.69993 9 8.79993 9C9.89993 9 10.9833 9.12917 12.0499 9.3875C13.1166 9.64583 14.1666 10.0333 15.1999 10.55C15.6833 10.8 16.0708 11.1625 16.3624 11.6375C16.6541 12.1125 16.7999 12.6333 16.7999 13.2V16H0.799927ZM18.7999 16V13C18.7999 12.2667 18.5958 11.5625 18.1874 10.8875C17.7791 10.2125 17.1999 9.63333 16.4499 9.15C17.2999 9.25 18.0999 9.42083 18.8499 9.6625C19.5999 9.90417 20.2999 10.2 20.9499 10.55C21.5499 10.8833 22.0083 11.2542 22.3249 11.6625C22.6416 12.0708 22.7999 12.5167 22.7999 13V16H18.7999ZM8.79993 8C7.69993 8 6.75826 7.60833 5.97493 6.825C5.19159 6.04167 4.79993 5.1 4.79993 4C4.79993 2.9 5.19159 1.95833 5.97493 1.175C6.75826 0.391667 7.69993 0 8.79993 0C9.89993 0 10.8416 0.391667 11.6249 1.175C12.4083 1.95833 12.7999 2.9 12.7999 4C12.7999 5.1 12.4083 6.04167 11.6249 6.825C10.8416 7.60833 9.89993 8 8.79993 8ZM18.7999 4C18.7999 5.1 18.4083 6.04167 17.6249 6.825C16.8416 7.60833 15.8999 8 14.7999 8C14.6166 8 14.3833 7.97917 14.0999 7.9375C13.8166 7.89583 13.5833 7.85 13.3999 7.8C13.8499 7.26667 14.1958 6.675 14.4374 6.025C14.6791 5.375 14.7999 4.7 14.7999 4C14.7999 3.3 14.6791 2.625 14.4374 1.975C14.1958 1.325 13.8499 0.733333 13.3999 0.2C13.6333 0.116667 13.8666 0.0625 14.0999 0.0375C14.3333 0.0125 14.5666 0 14.7999 0C15.8999 0 16.8416 0.391667 17.6249 1.175C18.4083 1.95833 18.7999 2.9 18.7999 4ZM2.79993 14H14.7999V13.2C14.7999 13.0167 14.7541 12.85 14.6624 12.7C14.5708 12.55 14.4499 12.4333 14.2999 12.35C13.3999 11.9 12.4916 11.5625 11.5749 11.3375C10.6583 11.1125 9.73326 11 8.79993 11C7.86659 11 6.94159 11.1125 6.02493 11.3375C5.10826 11.5625 4.19993 11.9 3.29993 12.35C3.14993 12.4333 3.02909 12.55 2.93743 12.7C2.84576 12.85 2.79993 13.0167 2.79993 13.2V14ZM8.79993 6C9.34993 6 9.82076 5.80417 10.2124 5.4125C10.6041 5.02083 10.7999 4.55 10.7999 4C10.7999 3.45 10.6041 2.97917 10.2124 2.5875C9.82076 2.19583 9.34993 2 8.79993 2C8.24993 2 7.77909 2.19583 7.38743 2.5875C6.99576 2.97917 6.79993 3.45 6.79993 4C6.79993 4.55 6.99576 5.02083 7.38743 5.4125C7.77909 5.80417 8.24993 6 8.79993 6Z" fill="#35973D"/>
</svg>
