<svg width="16" height="15" viewBox="0 0 16 15" fill="none" xmlns="http://www.w3.org/2000/svg">
<path fill-rule="evenodd" clip-rule="evenodd" d="M4.15736 0.166504C3.39982 0.166504 2.70729 0.594511 2.36851 1.27208L0.765353 4.47838C0.431963 5.14516 0.49709 5.94203 0.934326 6.54584L6.3801 14.0662C7.17858 15.1688 8.82138 15.1688 9.61985 14.0662L15.0656 6.54584C15.5028 5.94203 15.568 5.14517 15.2346 4.47838L13.6314 1.27208C13.2926 0.594511 12.6002 0.166504 11.8426 0.166504H4.15736ZM3.56108 1.86836C3.67401 1.6425 3.90485 1.49984 4.15736 1.49984H5.78283L4.83045 4.83317H2.07867L3.56108 1.86836ZM6.21714 4.83317L7.16951 1.49984H8.83045L9.78285 4.83317H6.21714ZM9.76398 6.1665H6.23596L7.99998 11.8996L9.76398 6.1665ZM9.28598 12.254L11.159 6.1665H13.6941L9.28598 12.254ZM11.1695 4.83317L10.2171 1.49984H11.8426C12.0951 1.49984 12.326 1.6425 12.4389 1.86836L13.9213 4.83317H11.1695ZM2.30585 6.1665H4.84093L6.71398 12.254L2.30585 6.1665Z" fill="#35973D"/>
</svg>
