<svg width="18" height="18" viewBox="0 0 18 18" fill="none" xmlns="http://www.w3.org/2000/svg">
<g clip-path="url(#clip0_3077_10249)">
<path d="M17.8184 8.55122L16.0395 6.71261L16.398 4.17922C16.4467 3.83467 16.2135 3.5136 15.8707 3.45348L13.3508 3.01165L12.1517 0.751516C11.9887 0.444034 11.611 0.321644 11.2986 0.474309L8.99994 1.5981L6.70144 0.474395C6.38871 0.321558 6.01139 0.444206 5.84823 0.751602L4.64918 3.01174L2.1293 3.45357C1.78655 3.5136 1.55321 3.83476 1.60198 4.17931L1.96038 6.7127L0.181457 8.55122C-0.0604857 8.80125 -0.0604857 9.19818 0.181457 9.44829L1.96029 11.287L1.60189 13.8205C1.55321 14.1649 1.78647 14.486 2.12913 14.5462L4.6491 14.9883L5.84823 17.2482C6.0113 17.5556 6.38871 17.6782 6.70135 17.5254L8.99985 16.4019L11.2986 17.5254C11.3897 17.5699 11.4862 17.591 11.5814 17.591C11.8129 17.591 12.036 17.4659 12.1516 17.2482L13.3508 14.9883L15.8707 14.5462C16.2134 14.4861 16.4467 14.1649 16.398 13.8205L16.0395 11.287L17.8185 9.44829C18.0604 9.19818 18.0604 8.80134 17.8184 8.55122ZM14.8931 10.6166C14.7548 10.7596 14.6902 10.9585 14.7181 11.1556L15.0333 13.3834L12.8174 13.7721C12.6214 13.8065 12.4522 13.9294 12.359 14.1052L11.3045 16.0924L9.28316 15.1045C9.1938 15.0608 9.09687 15.0389 8.99985 15.0389C8.90292 15.0389 8.80599 15.0608 8.71662 15.1045L6.69542 16.0924L5.64095 14.1052C5.54772 13.9294 5.37854 13.8065 5.18261 13.7721L2.96668 13.3834L3.28182 11.1556C3.30968 10.9586 3.24509 10.7597 3.1067 10.6167L1.54255 8.99984L3.1067 7.38314C3.245 7.24019 3.30968 7.04125 3.28182 6.84429L2.96668 4.61658L5.18252 4.22808C5.37854 4.19376 5.54772 4.07077 5.64104 3.89505L6.69542 1.90756L8.71654 2.89571C8.89526 2.98319 9.10427 2.98319 9.28316 2.89571L11.3045 1.90756L12.3589 3.89505C12.4522 4.07077 12.6213 4.19376 12.8174 4.22808L15.0332 4.61658L14.718 6.84429C14.6901 7.04134 14.7547 7.24019 14.8931 7.38322L16.4572 8.99984L14.8931 10.6166Z" fill="#35973D"/>
<path d="M6.95101 8.51317C7.8123 8.51317 8.51293 7.81254 8.51293 6.95142C8.51293 6.08996 7.8123 5.38916 6.95101 5.38916C6.08963 5.38916 5.38892 6.08996 5.38892 6.95142C5.38892 7.81263 6.08972 8.51317 6.95101 8.51317ZM6.95101 6.42126C7.24318 6.42126 7.48082 6.65908 7.48082 6.95142C7.48082 7.24351 7.24309 7.48106 6.95101 7.48106C6.65875 7.48106 6.42102 7.24342 6.42102 6.95142C6.42102 6.65908 6.65875 6.42126 6.95101 6.42126Z" fill="#35973D"/>
<path d="M12.1158 5.88408C11.9144 5.68256 11.5874 5.68248 11.3861 5.88408L5.88429 11.3858C5.68277 11.5873 5.68277 11.9141 5.88429 12.1156C5.9851 12.2164 6.11712 12.2667 6.24923 12.2667C6.38125 12.2667 6.51336 12.2163 6.61416 12.1156L12.1159 6.61387C12.3173 6.41235 12.3173 6.0856 12.1158 5.88408Z" fill="#35973D"/>
<path d="M11.0486 9.48682C10.1874 9.48682 9.48682 10.1874 9.48682 11.0486C9.48682 11.91 10.1874 12.6108 11.0486 12.6108C11.91 12.6108 12.6108 11.91 12.6108 11.0486C12.6108 10.1874 11.91 9.48682 11.0486 9.48682ZM11.0486 11.5788C10.7566 11.5788 10.5189 11.341 10.5189 11.0486C10.5189 10.7567 10.7566 10.519 11.0486 10.519C11.3408 10.519 11.5787 10.7567 11.5787 11.0486C11.5787 11.3409 11.3409 11.5788 11.0486 11.5788Z" fill="#35973D"/>
</g>
<defs>
<clipPath id="clip0_3077_10249">
<rect width="18" height="18" fill="white"/>
</clipPath>
</defs>
</svg>
