<svg width="17" height="18" viewBox="0 0 17 18" fill="none" xmlns="http://www.w3.org/2000/svg">
<path d="M1.66667 17.5C1.20833 17.5 0.815972 17.3368 0.489583 17.0104C0.163194 16.684 0 16.2917 0 15.8333V4.16667C0 3.70833 0.163194 3.31597 0.489583 2.98958C0.815972 2.66319 1.20833 2.5 1.66667 2.5H9.10417L7.4375 4.16667H1.66667V15.8333H13.3333V10.0417L15 8.375V15.8333C15 16.2917 14.8368 16.684 14.5104 17.0104C14.184 17.3368 13.7917 17.5 13.3333 17.5H1.66667ZM5 12.5V8.95833L12.6458 1.3125C12.8125 1.14583 13 1.02083 13.2083 0.9375C13.4167 0.854167 13.625 0.8125 13.8333 0.8125C14.0556 0.8125 14.2674 0.854167 14.4687 0.9375C14.6701 1.02083 14.8542 1.14583 15.0208 1.3125L16.1875 2.5C16.3403 2.66667 16.4583 2.85069 16.5417 3.05208C16.625 3.25347 16.6667 3.45833 16.6667 3.66667C16.6667 3.875 16.6285 4.07986 16.5521 4.28125C16.4757 4.48264 16.3542 4.66667 16.1875 4.83333L8.54167 12.5H5ZM6.66667 10.8333H7.83333L12.6667 6L12.0833 5.41667L11.4792 4.83333L6.66667 9.64583V10.8333Z" fill="black"/>
</svg>
