<svg width="18" height="10" viewBox="0 0 18 10" fill="none" xmlns="http://www.w3.org/2000/svg">
<path d="M0 9.5V8.31875C0 7.78125 0.275 7.34375 0.825 7.00625C1.375 6.66875 2.1 6.5 3 6.5C3.1625 6.5 3.31875 6.50313 3.46875 6.50938C3.61875 6.51563 3.7625 6.53125 3.9 6.55625C3.725 6.81875 3.59375 7.09375 3.50625 7.38125C3.41875 7.66875 3.375 7.96875 3.375 8.28125V9.5H0ZM4.5 9.5V8.28125C4.5 7.88125 4.60938 7.51563 4.82812 7.18438C5.04688 6.85313 5.35625 6.5625 5.75625 6.3125C6.15625 6.0625 6.63438 5.875 7.19063 5.75C7.74688 5.625 8.35 5.5625 9 5.5625C9.6625 5.5625 10.2719 5.625 10.8281 5.75C11.3844 5.875 11.8625 6.0625 12.2625 6.3125C12.6625 6.5625 12.9688 6.85313 13.1813 7.18438C13.3938 7.51563 13.5 7.88125 13.5 8.28125V9.5H4.5ZM14.625 9.5V8.28125C14.625 7.95625 14.5844 7.65 14.5031 7.3625C14.4219 7.075 14.3 6.80625 14.1375 6.55625C14.275 6.53125 14.4156 6.51563 14.5594 6.50938C14.7031 6.50313 14.85 6.5 15 6.5C15.9 6.5 16.625 6.66563 17.175 6.99688C17.725 7.32813 18 7.76875 18 8.31875V9.5H14.625ZM6.09375 8H11.925C11.8 7.75 11.4531 7.53125 10.8844 7.34375C10.3156 7.15625 9.6875 7.0625 9 7.0625C8.3125 7.0625 7.68438 7.15625 7.11563 7.34375C6.54688 7.53125 6.20625 7.75 6.09375 8ZM3 5.75C2.5875 5.75 2.23438 5.60313 1.94063 5.30938C1.64688 5.01562 1.5 4.6625 1.5 4.25C1.5 3.825 1.64688 3.46875 1.94063 3.18125C2.23438 2.89375 2.5875 2.75 3 2.75C3.425 2.75 3.78125 2.89375 4.06875 3.18125C4.35625 3.46875 4.5 3.825 4.5 4.25C4.5 4.6625 4.35625 5.01562 4.06875 5.30938C3.78125 5.60313 3.425 5.75 3 5.75ZM15 5.75C14.5875 5.75 14.2344 5.60313 13.9406 5.30938C13.6469 5.01562 13.5 4.6625 13.5 4.25C13.5 3.825 13.6469 3.46875 13.9406 3.18125C14.2344 2.89375 14.5875 2.75 15 2.75C15.425 2.75 15.7813 2.89375 16.0688 3.18125C16.3563 3.46875 16.5 3.825 16.5 4.25C16.5 4.6625 16.3563 5.01562 16.0688 5.30938C15.7813 5.60313 15.425 5.75 15 5.75ZM9 5C8.375 5 7.84375 4.78125 7.40625 4.34375C6.96875 3.90625 6.75 3.375 6.75 2.75C6.75 2.1125 6.96875 1.57812 7.40625 1.14688C7.84375 0.715625 8.375 0.5 9 0.5C9.6375 0.5 10.1719 0.715625 10.6031 1.14688C11.0344 1.57812 11.25 2.1125 11.25 2.75C11.25 3.375 11.0344 3.90625 10.6031 4.34375C10.1719 4.78125 9.6375 5 9 5ZM9 3.5C9.2125 3.5 9.39062 3.42813 9.53438 3.28438C9.67813 3.14062 9.75 2.9625 9.75 2.75C9.75 2.5375 9.67813 2.35938 9.53438 2.21563C9.39062 2.07188 9.2125 2 9 2C8.7875 2 8.60938 2.07188 8.46563 2.21563C8.32188 2.35938 8.25 2.5375 8.25 2.75C8.25 2.9625 8.32188 3.14062 8.46563 3.28438C8.60938 3.42813 8.7875 3.5 9 3.5Z" fill="#35973D"/>
</svg>
