<?xml version="1.0" encoding="UTF-8"?>
<svg version="1.1" xmlns="http://www.w3.org/2000/svg" width="420" height="270">
<path d="M0 0 C18.81 0 37.62 0 57 0 C57 52.47 57 104.94 57 159 C38.19 159 19.38 159 0 159 C0 106.53 0 54.06 0 0 Z " fill="#FFFFFF" transform="translate(272,107)"/>
<path d="M0 0 C0 0.66 0 1.32 0 2 C-0.66 2 -1.32 2 -2 2 C-3.73013719 8.37719988 -4.1032203 13.72490563 -0.75 19.625 C3.07919843 25.4500778 7.52754058 30.82237395 11.9296875 36.21875 C15.05592632 40.05153815 18.0729237 43.95678256 21.078125 47.88525391 C24.61349281 52.50318914 28.17829428 57.09762239 31.75 61.6875 C32.33845703 62.44619385 32.92691406 63.2048877 33.53320312 63.98657227 C36.57116429 67.89963411 39.6284884 71.7944681 42.7265625 75.66015625 C56.18842129 92.53749727 64.98665161 106.71970225 63 129 C60.90342852 138.6966431 54.19172894 147.50077161 46 153 C36.87577248 158.04573006 26.15296128 159.12503841 16 157 C17 155 18 153 19 151 C20.0935366 144.57720273 18.61336084 140.20959374 15.09375 134.85546875 C11.56630674 130.04472058 7.84057088 125.40302487 4.0703125 120.78125 C0.94407368 116.94846185 -2.0729237 113.04321744 -5.078125 109.11474609 C-8.61349281 104.49681086 -12.17829428 99.90237761 -15.75 95.3125 C-16.33845703 94.55380615 -16.92691406 93.7951123 -17.53320312 93.01342773 C-20.57116429 89.10036589 -23.6284884 85.2055319 -26.7265625 81.33984375 C-38.43466927 66.65965521 -49.734395 51.83517188 -48 32 C-45.71172778 19.36945807 -39.56211943 10.83561888 -29.21484375 3.359375 C-20.96005724 -1.70705482 -9.18483313 -3.06161104 0 0 Z " fill="#FFFFFF" transform="translate(197,108)"/>
<path d="M0 0 C0 52.8 0 105.6 0 160 C-16.5901976 160 -30.96300599 154.70098597 -43 143 C-56.06647677 128.42992542 -62.08175313 109.62159127 -62.203125 90.22265625 C-62.20882507 89.49364609 -62.21452515 88.76463593 -62.22039795 88.01353455 C-62.22979419 86.47477644 -62.23636038 84.93599871 -62.24023438 83.3972168 C-62.24984434 81.0997155 -62.28087801 78.80314783 -62.3125 76.50585938 C-62.47334315 54.12744611 -57.144564 33.01259488 -41.47265625 16.3203125 C-30.54110999 6.06227383 -14.98313044 0 0 0 Z " fill="#FFFFFF" transform="translate(72,107)"/>
<path d="M0 0 C3.78173828 0.73535156 3.78173828 0.73535156 5.74609375 3.1171875 C15.00326418 18.21086493 22.24033148 34.89257854 20 53 C18.30911551 59.24326582 14.30534838 63.44258542 9 67 C7.515 67.495 7.515 67.495 6 68 C5.67 74.93 5.34 81.86 5 89 C6.98 87.68 8.96 86.36 11 85 C11.26074926 83.07697422 11.50914216 81.1485506 11.6171875 79.2109375 C13.03893443 70.99962361 21.2874605 63.63015122 27.7734375 59.03515625 C42.02532945 49.86819859 59.65446543 41.32455083 77 42 C75.44464313 53.3256268 67.53745886 64.78001534 60 73 C59.07960938 74.04027344 59.07960938 74.04027344 58.140625 75.1015625 C49.53954646 84.30684904 39.15356188 91.19705598 26.4375 92.3125 C23 92 23 92 20.8515625 91.296875 C18.44277203 90.52408898 16.53405 90.06093409 14 90 C10.06189603 92.05191345 6.67100538 94.95304587 5.26391602 99.24548149 C4.97642135 101.85193452 4.94406922 104.35262604 5 106.97436523 C4.98907822 107.95074448 4.97815643 108.92712372 4.96690369 109.93309021 C4.94030858 113.14266454 4.96980463 116.34909397 5 119.55859375 C4.99247877 121.79062818 4.98144246 124.02265329 4.96704102 126.25465393 C4.93863885 132.11576554 4.95787762 137.97578334 4.98712158 143.83685303 C5.00853202 149.82294827 4.98477321 155.80884677 4.96484375 161.79492188 C4.93241642 173.53019455 4.95032986 185.26480768 5 197 C2.69 197 0.38 197 -2 197 C-1.9969838 195.73768051 -1.99396759 194.47536102 -1.99085999 193.17478943 C-1.96697308 181.27140689 -1.97980245 169.36855302 -2.02846622 157.46523952 C-2.05230744 151.34571403 -2.06326734 145.22673311 -2.04467773 139.10717773 C-2.027209 133.19998797 -2.04372223 127.29377611 -2.08367729 121.3867054 C-2.0929627 119.13451893 -2.09005768 116.88224774 -2.07469368 114.63009453 C-2.05524103 111.47162649 -2.07935195 108.31623979 -2.11352539 105.15795898 C-2.0977092 104.22935059 -2.08189301 103.30074219 -2.06559753 102.34399414 C-2.1725487 97.19788727 -2.86695841 94.5799719 -6.55540466 90.86512756 C-7.68235582 89.88510359 -8.82394031 88.92051589 -10 88 C-13.54518884 89.39759905 -13.54518884 89.39759905 -17 91 C-28.15235593 92.30825714 -36.45305775 88.03150036 -45.13671875 81.38671875 C-57.80716639 70.82513143 -67.29730095 58.73725602 -73 43 C-73 42.01 -73 41.02 -73 40 C-51.86504169 42.42472981 -26.9115434 50.45374719 -12.8984375 67.56640625 C-8.8837018 73.49337388 -7.88537838 76.89345936 -8 84 C-7.195625 84.309375 -6.39125 84.61875 -5.5625 84.9375 C-3 86 -3 86 -2 87 C-1.67 80.73 -1.34 74.46 -1 68 C-2.65 67.34 -4.3 66.68 -6 66 C-11.61682 61.47914488 -14.61899572 55.0112525 -16 48 C-17.43666894 29.90349698 -10.56941205 14.25213402 0 0 Z " fill="#FFFFFF" transform="translate(333,3)"/>
<path d="M0 0 C33.26785714 0 33.26785714 0 46.34765625 10.96875 C57.6674891 22.64827848 58.47291108 36.88297776 58.27734375 52.2265625 C57.90682219 63.62977825 54.30224521 73.91549071 45.96484375 81.96484375 C32.3531347 93.3199379 17.28523965 93 0 93 C0 62.31 0 31.62 0 0 Z " fill="#FFFFFF" transform="translate(341,107)"/>
<path d="M0 0 C18.81 0 37.62 0 57 0 C60.66464775 18.32323876 57.42276358 39.71984165 47.8125 55.8125 C38.64029765 69.05904974 27.24702546 76.37968474 11.79296875 80.58984375 C7.90134165 81.16134144 3.93336639 81 0 81 C0 54.27 0 27.54 0 0 Z " fill="#FFFFFF" transform="translate(80,186)"/>
<path d="M0 0 C0.66 0 1.32 0 2 0 C3.83113229 2.2551193 5.54972486 4.52352659 7.25 6.875 C8.3344294 8.34876713 9.42042862 9.82138016 10.5078125 11.29296875 C11.07790039 12.06560059 11.64798828 12.83823242 12.23535156 13.63427734 C15.14126612 17.53000397 18.13171118 21.35874155 21.125 25.1875 C22.3151918 26.71217118 23.5052976 28.23690949 24.6953125 29.76171875 C25.26024414 30.48536621 25.82517578 31.20901367 26.40722656 31.95458984 C28.61772877 34.79327584 30.80982648 37.64559353 33 40.5 C37.08955402 45.82388044 41.19598569 51.13443577 45.3125 56.4375 C46.19325195 57.57445312 46.19325195 57.57445312 47.09179688 58.734375 C49.64212633 62.01628467 52.20521302 65.26068976 54.91796875 68.41015625 C57 71 57 71 57 73 C38.19 73 19.38 73 0 73 C0 48.91 0 24.82 0 0 Z " fill="#FFFFFF" transform="translate(149,193)"/>
<path d="M0 0 C18.48 0 36.96 0 56 0 C56 23.76 56 47.52 56 72 C55.34 72 54.68 72 54 72 C52.80175781 70.72509766 52.80175781 70.72509766 51.453125 68.9140625 C50.69092651 67.90230957 50.69092651 67.90230957 49.91333008 66.87011719 C49.36443115 66.12922852 48.81553223 65.38833984 48.25 64.625 C47.07241 63.05929727 45.89399704 61.49421323 44.71484375 59.9296875 C44.10366699 59.1159668 43.49249023 58.30224609 42.86279297 57.46386719 C39.88671925 53.52749288 36.85000558 49.63904133 33.8125 45.75 C29.069026 39.66474134 24.35022572 33.56194132 19.65234375 27.44140625 C15.70231158 22.30620971 11.71550692 17.19941496 7.73242188 12.08984375 C7.16201172 11.35765625 6.59160156 10.62546875 6.00390625 9.87109375 C5.49674072 9.22068115 4.9895752 8.57026855 4.46704102 7.90014648 C3.98291748 7.27309814 3.49879395 6.6460498 3 6 C2.44304443 5.30140869 1.88608887 4.60281738 1.31225586 3.88305664 C0 2 0 2 0 0 Z " fill="#FFFFFF" transform="translate(204,107)"/>
<path d="M0 0 C19.14 0 38.28 0 58 0 C58 21.12 58 42.24 58 64 C54.7369879 62.9123293 54.12160072 62.24933287 52 59.6875 C48.95176542 56.09264107 45.82068991 52.58874761 42.625 49.125 C36.97690999 42.98648389 31.39727194 36.78832482 25.828125 30.578125 C22.1904076 26.52761697 18.5398199 22.49022023 14.85620117 18.48144531 C12.56747728 15.99067094 10.28406045 13.49505137 8 11 C7.18273437 10.11183594 6.36546875 9.22367188 5.5234375 8.30859375 C4.79382813 7.50550781 4.06421875 6.70242187 3.3125 5.875 C2.66925781 5.17117187 2.02601562 4.46734375 1.36328125 3.7421875 C0 2 0 2 0 0 Z " fill="#FFFFFF" transform="translate(80,107)"/>
<path d="M0 0 C2.4375 1.625 2.4375 1.625 4 4 C4.5 7 4.5 7 4 10 C2.20412315 12.37312298 0.73136969 13.64611144 -1.9375 14.9375 C-5.00139486 15.0303453 -6.57443399 13.78725916 -9 12 C-11 9 -11 9 -10.8125 6 C-9.12784607 -0.22026067 -6.26355142 -0.76920807 0 0 Z M-6 2 C-7.66846734 3.69495956 -7.66846734 3.69495956 -9 6 C-8.93290716 8.67140463 -8.93290716 8.67140463 -8 11 C-5.21136993 12.39431504 -3.07921132 12.25660094 0 12 C2.36692966 9.15173402 2.36692966 9.15173402 1.625 5.8125 C1.41875 4.884375 1.2125 3.95625 1 3 C-1.31 2.67 -3.62 2.34 -6 2 Z " fill="#FFFFFF" transform="translate(395,95)"/>
<path d="M0 0 C1.65 0 3.3 0 5 0 C6 4.75 6 4.75 6 7 C4.02 7 2.04 7 0 7 C0 4.69 0 2.38 0 0 Z " fill="#FFFFFF" transform="translate(389,98)"/>
</svg>
