<svg width="28" height="35" viewBox="0 0 28 35" fill="none" xmlns="http://www.w3.org/2000/svg">
<path d="M0.664062 29.1693V25.8359H3.9974V14.1693C3.9974 11.8637 4.69184 9.8151 6.08073 8.02344C7.46962 6.23177 9.27517 5.05816 11.4974 4.5026V3.33594C11.4974 2.64149 11.7405 2.05122 12.2266 1.5651C12.7127 1.07899 13.303 0.835938 13.9974 0.835938C14.6918 0.835938 15.2821 1.07899 15.7682 1.5651C16.2543 2.05122 16.4974 2.64149 16.4974 3.33594V4.5026C18.7196 5.05816 20.5252 6.23177 21.9141 8.02344C23.3029 9.8151 23.9974 11.8637 23.9974 14.1693V25.8359H27.3307V29.1693H0.664062ZM13.9974 34.1693C13.0807 34.1693 12.296 33.8429 11.6432 33.1901C10.9905 32.5373 10.6641 31.7526 10.6641 30.8359H17.3307C17.3307 31.7526 17.0043 32.5373 16.3516 33.1901C15.6988 33.8429 14.9141 34.1693 13.9974 34.1693ZM7.33073 25.8359H20.6641V14.1693C20.6641 12.3359 20.0113 10.7665 18.7057 9.46094C17.4002 8.15538 15.8307 7.5026 13.9974 7.5026C12.1641 7.5026 10.5946 8.15538 9.28906 9.46094C7.98351 10.7665 7.33073 12.3359 7.33073 14.1693V25.8359Z" fill="#6B7280"/>
</svg>
