<svg width="29" height="28" viewBox="0 0 29 28" fill="none" xmlns="http://www.w3.org/2000/svg">
<path d="M28.0831 12.7751C28.0005 12.5827 27.8816 12.4124 27.7302 12.2694C23.5692 8.31944 19.4081 4.37003 15.247 0.42067C14.6563 -0.14027 13.7307 -0.140159 13.1399 0.420615C8.97884 4.37003 4.81776 8.31949 0.656906 12.2692C0.353631 12.5564 0.179688 12.9611 0.179688 13.3795C0.179688 13.7888 0.33902 14.1732 0.628128 14.4617C0.916904 14.7504 1.30118 14.9096 1.71023 14.9096H3.45244V26.4695C3.45244 27.3134 4.13877 28 4.98243 28H23.4045C24.2482 28 24.9345 27.3134 24.9345 26.4695V14.9096H26.6767C27.5206 14.9096 28.2072 14.2232 28.2072 13.3796C28.2072 13.1703 28.1655 12.967 28.0831 12.7751ZM11.0805 9.27582C11.1984 8.87693 11.5739 8.59838 11.9935 8.59838H16.3934C16.8131 8.59838 17.1886 8.87699 17.3065 9.27599L17.7075 10.6278H17.1439L16.8774 9.74704C16.7738 9.40326 16.4619 9.17227 16.1013 9.17227H12.2858C11.9251 9.17227 11.6133 9.40321 11.5097 9.74682L11.2431 10.6278H10.6795L11.0805 9.27582ZM21.8873 22.6822C21.8873 23.1782 21.4803 23.5816 20.9801 23.5816H7.40685C6.90658 23.5816 6.49964 23.1781 6.49964 22.6822V16.6801C8.64784 17.4761 10.7965 18.2715 12.9452 19.0669V20.16C12.9452 20.5261 13.243 20.8239 13.6091 20.8239H14.7779C15.144 20.8239 15.4418 20.5261 15.4418 20.16V19.0669C17.5905 18.2715 19.7391 17.4761 21.8873 16.6801V22.6822H21.8873ZM14.9973 19.2227V20.16C14.9973 20.281 14.8989 20.3794 14.7779 20.3794H13.609C13.488 20.3794 13.3896 20.281 13.3896 20.16V19.2227H14.9973ZM13.3896 18.7783V17.8417C13.3896 17.7207 13.488 17.6223 13.609 17.6223H14.7778C14.8988 17.6223 14.9973 17.7207 14.9973 17.8417V18.7783H13.3896ZM22.6201 15.3111C22.6201 15.6808 22.3871 16.017 22.0393 16.1501C22.0362 16.1512 22.0332 16.1522 22.0301 16.1533C19.8344 16.9669 17.6381 17.78 15.4418 18.593V17.8417C15.4418 17.4756 15.144 17.1779 14.7779 17.1779H13.609C13.243 17.1779 12.9451 17.4756 12.9451 17.8417V18.593C10.7488 17.78 8.55262 16.9669 6.3568 16.1533C6.35375 16.1522 6.35069 16.1512 6.34758 16.1501C5.99986 16.017 5.76686 15.6809 5.76686 15.3111V11.9717C5.76686 11.4757 6.17381 11.0723 6.67408 11.0723H14.1935H21.7128C22.2131 11.0723 22.6201 11.4758 22.6201 11.9717V15.3111Z" fill="#6B7280"/>
</svg>
