<svg width="16" height="12" viewBox="0 0 16 12" fill="none" xmlns="http://www.w3.org/2000/svg">
<path d="M9.5 6.75H13.25V5.25H9.5V6.75ZM9.5 4.5H13.25V3H9.5V4.5ZM2.75 9H8.75V8.5875C8.75 8.025 8.475 7.57813 7.925 7.24688C7.375 6.91563 6.65 6.75 5.75 6.75C4.85 6.75 4.125 6.91563 3.575 7.24688C3.025 7.57813 2.75 8.025 2.75 8.5875V9ZM5.75 6C6.1625 6 6.51562 5.85313 6.80938 5.55938C7.10313 5.26562 7.25 4.9125 7.25 4.5C7.25 4.0875 7.10313 3.73438 6.80938 3.44063C6.51562 3.14688 6.1625 3 5.75 3C5.3375 3 4.98438 3.14688 4.69063 3.44063C4.39688 3.73438 4.25 4.0875 4.25 4.5C4.25 4.9125 4.39688 5.26562 4.69063 5.55938C4.98438 5.85313 5.3375 6 5.75 6ZM2 12C1.5875 12 1.23438 11.8531 0.940625 11.5594C0.646875 11.2656 0.5 10.9125 0.5 10.5V1.5C0.5 1.0875 0.646875 0.734375 0.940625 0.440625C1.23438 0.146875 1.5875 0 2 0H14C14.4125 0 14.7656 0.146875 15.0594 0.440625C15.3531 0.734375 15.5 1.0875 15.5 1.5V10.5C15.5 10.9125 15.3531 11.2656 15.0594 11.5594C14.7656 11.8531 14.4125 12 14 12H2ZM2 10.5H14V1.5H2V10.5Z" fill="#35973D"/>
</svg>
