<svg width="18" height="14" viewBox="0 0 18 14" fill="none" xmlns="http://www.w3.org/2000/svg">
<path d="M2.33073 13.6693C1.8724 13.6693 1.48003 13.5061 1.15365 13.1797C0.827257 12.8533 0.664062 12.4609 0.664062 12.0026V2.0026C0.664062 1.54427 0.827257 1.15191 1.15365 0.825521C1.48003 0.499132 1.8724 0.335938 2.33073 0.335938H15.6641C16.1224 0.335938 16.5148 0.499132 16.8411 0.825521C17.1675 1.15191 17.3307 1.54427 17.3307 2.0026V12.0026C17.3307 12.4609 17.1675 12.8533 16.8411 13.1797C16.5148 13.5061 16.1224 13.6693 15.6641 13.6693H2.33073ZM8.9974 7.83594L2.33073 3.66927V12.0026H15.6641V3.66927L8.9974 7.83594ZM8.9974 6.16927L15.6641 2.0026H2.33073L8.9974 6.16927ZM2.33073 3.66927V2.0026V12.0026V3.66927Z" fill="black"/>
</svg>
