<svg width="21" height="20" viewBox="0 0 21 20" fill="none" xmlns="http://www.w3.org/2000/svg">
<path d="M15.37 6.65176C12.7025 6.65176 10.5401 8.81422 10.5401 11.4817C10.5401 15.3264 15.37 20 15.37 20C15.37 20 20.2 15.3264 20.2 11.4817C20.2 8.81426 18.0376 6.65176 15.37 6.65176ZM15.37 15.0062C13.4235 15.0062 11.8455 13.4282 11.8455 11.4817C11.8455 9.5352 13.4235 7.95719 15.37 7.95719C17.3166 7.95719 18.8945 9.53516 18.8945 11.4817C18.8945 13.4282 17.3165 15.0062 15.37 15.0062ZM3.81808 15.4432L3.27464 14.405C3.69292 14.1861 4.17976 13.9864 4.80683 13.7769L5.17831 14.8883C4.61187 15.0776 4.17968 15.2539 3.81808 15.4432ZM11.676 18.8281H13.2385V20H11.676V18.8281ZM2.71073 14.7423L3.37604 15.707C2.9837 15.9776 2.74956 16.2656 2.68007 16.563L1.53894 16.2963C1.67679 15.7063 2.07104 15.1834 2.71073 14.7423ZM7.26093 9.40898C7.72444 9.48602 8.39355 9.65258 8.94897 10.0088L8.31628 10.9952C7.90812 10.7334 7.35952 10.6133 7.06882 10.565L7.26093 9.40898ZM8.6194 11.2558L9.52632 10.5136C10.116 11.2342 10.0138 12.0464 9.84608 12.5477L8.73472 12.176C8.81284 11.9425 8.87569 11.5689 8.6194 11.2558ZM6.57964 10.5264H5.01714V9.35449H6.57964V10.5264ZM11.0901 18.8281V20C11.0901 20 9.71706 19.9994 9.52378 19.9981L9.53147 18.8263C9.72226 18.8275 11.0901 18.8281 11.0901 18.8281ZM7.40616 18.7782C7.87499 18.7982 8.39456 18.8123 8.95038 18.8203L8.93366 19.992C8.36675 19.9839 7.83601 19.9695 7.35616 19.9489L7.40616 18.7782ZM8.56644 12.4618L9.42405 13.2604C8.99573 13.7203 8.378 13.9419 7.77425 14.113L7.45487 12.9855C7.89495 12.8608 8.33425 12.7111 8.56644 12.4618ZM6.89667 13.1364L7.20069 14.2682C7.00479 14.3208 5.82788 14.6817 5.72437 14.7137L5.37839 13.594C5.48335 13.5616 6.68523 13.1932 6.89667 13.1364ZM5.31429 18.6172C5.75296 18.6719 6.26308 18.7164 6.83046 18.7493L6.76253 19.9192C6.16112 19.8843 5.63999 19.8388 5.16925 19.78L5.31429 18.6172ZM3.40976 18.1666C3.73394 18.316 4.18823 18.4406 4.75991 18.5368L4.5655 19.6924C3.88194 19.5774 3.34343 19.4264 2.91909 19.2308L3.40976 18.1666ZM3.03843 17.9427L2.29601 18.8494C1.63089 18.3048 1.51593 17.5954 1.49011 17.0382L2.66077 16.984C2.68354 17.4761 2.78589 17.7359 3.03843 17.9427ZM4.23093 9.71992C4.23093 8.82379 3.64589 8.06465 2.83702 7.80262V4.03633H7.43679L4.81464 2.0182L7.43683 0H1.548V7.81812C0.762959 8.09359 0.199951 8.84082 0.199951 9.71992C0.199951 10.833 1.10229 11.7355 2.2155 11.7355C3.32862 11.7355 4.23093 10.833 4.23093 9.71992ZM1.48901 9.71992C1.48901 9.31941 1.81491 8.99352 2.2155 8.99352C2.61604 8.99352 2.9419 9.31938 2.9419 9.71992C2.9419 10.1205 2.61604 10.4464 2.2155 10.4464C1.81491 10.4464 1.48901 10.1205 1.48901 9.71992Z" fill="#35973D"/>
</svg>
