<svg width="17" height="4" viewBox="0 0 17 4" fill="none" xmlns="http://www.w3.org/2000/svg">
<path d="M2.40002 4C1.85002 4 1.37919 3.80417 0.987524 3.4125C0.595858 3.02083 0.400024 2.55 0.400024 2C0.400024 1.45 0.595858 0.979167 0.987524 0.5875C1.37919 0.195833 1.85002 0 2.40002 0C2.95002 0 3.42086 0.195833 3.81252 0.5875C4.20419 0.979167 4.40002 1.45 4.40002 2C4.40002 2.55 4.20419 3.02083 3.81252 3.4125C3.42086 3.80417 2.95002 4 2.40002 4ZM8.40002 4C7.85002 4 7.37919 3.80417 6.98752 3.4125C6.59586 3.02083 6.40002 2.55 6.40002 2C6.40002 1.45 6.59586 0.979167 6.98752 0.5875C7.37919 0.195833 7.85002 0 8.40002 0C8.95002 0 9.42086 0.195833 9.81252 0.5875C10.2042 0.979167 10.4 1.45 10.4 2C10.4 2.55 10.2042 3.02083 9.81252 3.4125C9.42086 3.80417 8.95002 4 8.40002 4ZM14.4 4C13.85 4 13.3792 3.80417 12.9875 3.4125C12.5959 3.02083 12.4 2.55 12.4 2C12.4 1.45 12.5959 0.979167 12.9875 0.5875C13.3792 0.195833 13.85 0 14.4 0C14.95 0 15.4209 0.195833 15.8125 0.5875C16.2042 0.979167 16.4 1.45 16.4 2C16.4 2.55 16.2042 3.02083 15.8125 3.4125C15.4209 3.80417 14.95 4 14.4 4Z" fill="#35973D"/>
</svg>
