<svg width="144" height="140" viewBox="0 0 144 140" fill="none" xmlns="http://www.w3.org/2000/svg">
<g clip-path="url(#clip0_7364_40365)">
<path d="M91.3431 31.4864H52.6965C51.8158 31.4875 50.9715 31.8378 50.3488 32.4606C49.726 33.0833 49.3757 33.9276 49.3746 34.8083V120.701L48.9317 120.836L39.4511 123.739C39.0018 123.876 38.5165 123.829 38.1017 123.609C37.6869 123.388 37.3766 123.012 37.2388 122.563L9.03824 30.4478C8.90101 29.9985 8.94778 29.5131 9.16829 29.0982C9.3888 28.6834 9.76499 28.373 10.2142 28.2354L24.8238 23.762L67.1777 10.7978L81.7872 6.32437C82.0095 6.25594 82.2432 6.23203 82.4748 6.254C82.7064 6.27598 82.9313 6.3434 83.1368 6.45242C83.3423 6.56144 83.5243 6.70992 83.6724 6.88934C83.8204 7.06877 83.9316 7.27564 83.9996 7.4981L91.208 31.0435L91.3431 31.4864Z" fill="#F2F2F2"/>
<path d="M99.7725 31.0408L91.0847 2.66319C90.9402 2.19036 90.7039 1.75065 90.3894 1.36919C90.0748 0.987719 89.6882 0.671972 89.2516 0.439985C88.8149 0.207998 88.3369 0.0643174 87.8447 0.0171581C87.3525 -0.0300011 86.8559 0.0202855 86.3832 0.165139L65.8429 6.45233L23.4914 19.4187L2.95113 25.7081C1.99694 26.0011 1.19798 26.6607 0.729628 27.5422C0.261275 28.4237 0.16179 29.4549 0.453015 30.4097L30.1461 127.393C30.3827 128.163 30.8601 128.838 31.5082 129.318C32.1562 129.797 32.9409 130.056 33.7471 130.057C34.1202 130.057 34.4912 130.001 34.8477 129.891L48.928 125.581L49.3709 125.444V124.981L48.928 125.116L34.7171 129.468C33.8748 129.725 32.9651 129.637 32.1875 129.224C31.4099 128.811 30.8279 128.106 30.5691 127.264L0.878305 30.279C0.750101 29.862 0.705418 29.4238 0.746814 28.9895C0.78821 28.5551 0.914869 28.1332 1.11954 27.748C1.32422 27.3627 1.60289 27.0215 1.9396 26.7441C2.2763 26.4666 2.66443 26.2583 3.08175 26.1311L23.622 19.8417L65.9737 6.87754L86.5139 0.588128C86.8304 0.491528 87.1595 0.442274 87.4905 0.441965C88.2007 0.44356 88.8918 0.672538 89.4625 1.09536C90.0332 1.51818 90.4535 2.11263 90.6618 2.79164L99.3097 31.0408L99.447 31.4837H99.9077L99.7725 31.0408Z" fill="#797979"/>
<path d="M27.4563 28.306C27.0294 28.3057 26.6139 28.1686 26.2707 27.9148C25.9275 27.6611 25.6746 27.304 25.5492 26.896L22.6967 17.5789C22.6201 17.3286 22.5935 17.0657 22.6185 16.8051C22.6434 16.5446 22.7195 16.2915 22.8423 16.0604C22.9651 15.8292 23.1322 15.6245 23.3342 15.4579C23.5361 15.2914 23.7688 15.1662 24.0191 15.0897L62.9822 3.16109C63.4877 3.00685 64.0337 3.05945 64.5004 3.30735C64.9671 3.55525 65.3164 3.97819 65.4716 4.48335L68.324 13.8006C68.4782 14.306 68.4255 14.852 68.1776 15.3187C67.9298 15.7854 67.5069 16.1347 67.0018 16.2899L28.0386 28.2185C27.8499 28.2764 27.6536 28.3059 27.4563 28.306Z" fill="#35973D"/>
<path d="M42.3979 9.95598C44.8441 9.95598 46.8271 7.97298 46.8271 5.52682C46.8271 3.08066 44.8441 1.09766 42.3979 1.09766C39.9518 1.09766 37.9688 3.08066 37.9688 5.52682C37.9688 7.97298 39.9518 9.95598 42.3979 9.95598Z" fill="#35973D"/>
<path d="M42.3984 8.33202C43.9474 8.33202 45.2031 7.07632 45.2031 5.52734C45.2031 3.97836 43.9474 2.72266 42.3984 2.72266C40.8494 2.72266 39.5938 3.97836 39.5938 5.52734C39.5938 7.07632 40.8494 8.33202 42.3984 8.33202Z" fill="white"/>
<path d="M133.751 128.928H58.898C58.399 128.927 57.9205 128.729 57.5676 128.376C57.2147 128.023 57.0162 127.545 57.0156 127.046V37.355C57.0162 36.856 57.2147 36.3775 57.5676 36.0246C57.9205 35.6717 58.3989 35.4732 58.898 35.4727H133.751C134.25 35.4732 134.728 35.6717 135.081 36.0246C135.434 36.3775 135.633 36.856 135.633 37.355V127.046C135.633 127.545 135.434 128.023 135.081 128.376C134.728 128.729 134.25 128.927 133.751 128.928Z" fill="#E6E6E6"/>
<path d="M99.3114 31.043H52.6945C51.6964 31.0444 50.7397 31.4415 50.0339 32.1472C49.3282 32.8529 48.9311 33.8097 48.9297 34.8078V125.118L49.3726 124.983V34.8078C49.3737 33.9271 49.724 33.0828 50.3467 32.46C50.9695 31.8373 51.8138 31.487 52.6945 31.4859H99.4487L99.3114 31.043ZM139.949 31.043H52.6945C51.6964 31.0444 50.7397 31.4415 50.0339 32.1472C49.3282 32.8529 48.9311 33.8097 48.9297 34.8078V136.236C48.9311 137.234 49.3282 138.19 50.0339 138.896C50.7397 139.602 51.6964 139.999 52.6945 140H139.949C140.947 139.999 141.904 139.602 142.61 138.896C143.315 138.19 143.712 137.234 143.714 136.236V34.8078C143.712 33.8097 143.315 32.8529 142.61 32.1472C141.904 31.4415 140.947 31.0444 139.949 31.043ZM143.271 136.236C143.27 137.116 142.919 137.961 142.297 138.583C141.674 139.206 140.83 139.556 139.949 139.557H52.6945C51.8138 139.556 50.9695 139.206 50.3467 138.583C49.724 137.961 49.3737 137.116 49.3726 136.236V34.8078C49.3737 33.9271 49.724 33.0828 50.3467 32.46C50.9695 31.8373 51.8138 31.487 52.6945 31.4859H139.949C140.83 31.487 141.674 31.8373 142.297 32.46C142.919 33.0828 143.27 33.9271 143.271 34.8078V136.236Z" fill="#797979"/>
<path d="M116.695 40.7851H75.9462C75.4178 40.7845 74.9112 40.5743 74.5375 40.2007C74.1639 39.827 73.9537 39.3204 73.9531 38.792V29.0478C73.9537 28.5194 74.1639 28.0128 74.5376 27.6391C74.9112 27.2655 75.4178 27.0553 75.9462 27.0547H116.695C117.223 27.0553 117.73 27.2655 118.103 27.6391C118.477 28.0128 118.687 28.5194 118.688 29.0478V38.792C118.687 39.3204 118.477 39.827 118.103 40.2007C117.73 40.5743 117.223 40.7845 116.695 40.7851Z" fill="#35973D"/>
<path d="M96.3198 27.7216C98.7659 27.7216 100.749 25.7386 100.749 23.2924C100.749 20.8463 98.7659 18.8633 96.3198 18.8633C93.8736 18.8633 91.8906 20.8463 91.8906 23.2924C91.8906 25.7386 93.8736 27.7216 96.3198 27.7216Z" fill="#35973D"/>
<path d="M96.3228 25.9893C97.8127 25.9893 99.0205 24.7815 99.0205 23.2915C99.0205 21.8016 97.8127 20.5938 96.3228 20.5938C94.8328 20.5938 93.625 21.8016 93.625 23.2915C93.625 24.7815 94.8328 25.9893 96.3228 25.9893Z" fill="white"/>
</g>
<defs>
<clipPath id="clip0_7364_40365">
<rect width="143.424" height="140" fill="white" transform="translate(0.289062)"/>
</clipPath>
</defs>
</svg>
