<svg width="18" height="19" viewBox="0 0 18 19" fill="none" xmlns="http://www.w3.org/2000/svg">
<path d="M17.8184 9.04878L16.0395 7.21017L16.398 4.67678C16.4467 4.33223 16.2135 4.01116 15.8707 3.95104L13.3508 3.50921L12.1517 1.24907C11.9887 0.941593 11.611 0.819202 11.2986 0.971868L8.99994 2.09566L6.70144 0.971954C6.38871 0.819116 6.01139 0.941765 5.84823 1.24916L4.64918 3.5093L2.1293 3.95113C1.78655 4.01116 1.55321 4.33232 1.60198 4.67687L1.96038 7.21026L0.181457 9.04878C-0.0604857 9.29881 -0.0604857 9.69574 0.181457 9.94585L1.96029 11.7845L1.60189 14.318C1.55321 14.6625 1.78647 14.9836 2.12913 15.0438L4.6491 15.4858L5.84823 17.7457C6.0113 18.0531 6.38871 18.1758 6.70135 18.0229L8.99985 16.8995L11.2986 18.0229C11.3897 18.0675 11.4862 18.0886 11.5814 18.0886C11.8129 18.0886 12.036 17.9635 12.1516 17.7457L13.3508 15.4858L15.8707 15.0438C16.2134 14.9836 16.4467 14.6625 16.398 14.318L16.0395 11.7845L17.8185 9.94585C18.0604 9.69574 18.0604 9.29889 17.8184 9.04878ZM14.8931 11.1142C14.7548 11.2571 14.6902 11.4561 14.7181 11.6531L15.0333 13.8809L12.8174 14.2697C12.6214 14.3041 12.4522 14.427 12.359 14.6027L11.3045 16.5899L9.28316 15.602C9.1938 15.5584 9.09687 15.5365 8.99985 15.5365C8.90292 15.5365 8.80599 15.5584 8.71662 15.602L6.69542 16.5899L5.64095 14.6027C5.54772 14.427 5.37854 14.3041 5.18261 14.2697L2.96668 13.8809L3.28182 11.6531C3.30968 11.4562 3.24509 11.2572 3.1067 11.1143L1.54255 9.4974L3.1067 7.8807C3.245 7.73775 3.30968 7.53881 3.28182 7.34185L2.96668 5.11414L5.18252 4.72563C5.37854 4.69132 5.54772 4.56832 5.64104 4.39261L6.69542 2.40512L8.71654 3.39327C8.89526 3.48074 9.10427 3.48074 9.28316 3.39327L11.3045 2.40512L12.3589 4.39261C12.4522 4.56832 12.6213 4.69132 12.8174 4.72563L15.0332 5.11414L14.718 7.34185C14.6901 7.5389 14.7547 7.73775 14.8931 7.88078L16.4572 9.4974L14.8931 11.1142Z" fill="white"/>
<path d="M6.95272 9.00682C7.81401 9.00682 8.51463 8.3062 8.51463 7.44508C8.51463 6.58361 7.81401 5.88281 6.95272 5.88281C6.09134 5.88281 5.39062 6.58361 5.39062 7.44508C5.39062 8.30628 6.09142 9.00682 6.95272 9.00682ZM6.95272 6.91492C7.24489 6.91492 7.48253 7.15273 7.48253 7.44508C7.48253 7.73716 7.2448 7.97472 6.95272 7.97472C6.66046 7.97472 6.42273 7.73708 6.42273 7.44508C6.42273 7.15273 6.66046 6.91492 6.95272 6.91492Z" fill="white"/>
<path d="M12.117 6.38555C11.9156 6.18403 11.5887 6.18394 11.3873 6.38555L5.88551 11.8873C5.684 12.0888 5.684 12.4155 5.88551 12.6171C5.98632 12.7179 6.11834 12.7682 6.25045 12.7682C6.38247 12.7682 6.51458 12.7178 6.61538 12.6171L12.1171 7.11533C12.3185 6.91381 12.3185 6.58706 12.117 6.38555Z" fill="white"/>
<path d="M11.0461 9.98438C10.1849 9.98438 9.48438 10.685 9.48438 11.5461C9.48438 12.4076 10.185 13.1084 11.0461 13.1084C11.9076 13.1084 12.6084 12.4076 12.6084 11.5461C12.6084 10.685 11.9076 9.98438 11.0461 9.98438ZM11.0461 12.0764C10.7541 12.0764 10.5165 11.8386 10.5165 11.5462C10.5165 11.2542 10.7541 11.0166 11.0461 11.0166C11.3384 11.0166 11.5763 11.2542 11.5763 11.5462C11.5763 11.8385 11.3385 12.0764 11.0461 12.0764Z" fill="white"/>
</svg>
