<svg width="34" height="34" viewBox="0 0 34 34" fill="none" xmlns="http://www.w3.org/2000/svg">
<path d="M23.7917 29.25L29.5833 23.5L27.8333 21.75L23.7917 25.7083L22.1667 24.0833L20.4167 25.875L23.7917 29.25ZM5 10.5H25V7.16667H5V10.5ZM25 33.8333C22.6944 33.8333 20.7292 33.0208 19.1042 31.3958C17.4792 29.7708 16.6667 27.8056 16.6667 25.5C16.6667 23.1944 17.4792 21.2292 19.1042 19.6042C20.7292 17.9792 22.6944 17.1667 25 17.1667C27.3056 17.1667 29.2708 17.9792 30.8958 19.6042C32.5208 21.2292 33.3333 23.1944 33.3333 25.5C33.3333 27.8056 32.5208 29.7708 30.8958 31.3958C29.2708 33.0208 27.3056 33.8333 25 33.8333ZM0 32.1667V3.83333C0 2.91667 0.326389 2.13194 0.979167 1.47917C1.63194 0.826389 2.41667 0.5 3.33333 0.5H26.6667C27.5833 0.5 28.3681 0.826389 29.0208 1.47917C29.6736 2.13194 30 2.91667 30 3.83333V14.9583C29.4722 14.7083 28.9306 14.5 28.375 14.3333C27.8194 14.1667 27.25 14.0417 26.6667 13.9583V3.83333H3.33333V27.25H13.4583C13.5972 28.1111 13.8125 28.9306 14.1042 29.7083C14.3958 30.4861 14.7778 31.2222 15.25 31.9167L15 32.1667L12.5 29.6667L10 32.1667L7.5 29.6667L5 32.1667L2.5 29.6667L0 32.1667ZM5 23.8333H13.4583C13.5417 23.25 13.6667 22.6806 13.8333 22.125C14 21.5694 14.2083 21.0278 14.4583 20.5H5V23.8333ZM5 17.1667H16.8333C17.8889 16.1389 19.1181 15.3264 20.5208 14.7292C21.9236 14.1319 23.4167 13.8333 25 13.8333H5V17.1667Z" fill="#35973D"/>
</svg>
