<svg width="80" height="80" viewBox="0 0 80 80" fill="none" xmlns="http://www.w3.org/2000/svg">
<rect width="80" height="80" rx="40" fill="#DEF7EC"/>
<rect x="15" y="15" width="50" height="50" rx="25" fill="#0E9F6E"/>
<path d="M39 45H41V39H39V45ZM40 37C40.2833 37 40.5208 36.9042 40.7125 36.7125C40.9042 36.5208 41 36.2833 41 36C41 35.7167 40.9042 35.4792 40.7125 35.2875C40.5208 35.0958 40.2833 35 40 35C39.7167 35 39.4792 35.0958 39.2875 35.2875C39.0958 35.4792 39 35.7167 39 36C39 36.2833 39.0958 36.5208 39.2875 36.7125C39.4792 36.9042 39.7167 37 40 37ZM40 50C38.6167 50 37.3167 49.7375 36.1 49.2125C34.8833 48.6875 33.825 47.975 32.925 47.075C32.025 46.175 31.3125 45.1167 30.7875 43.9C30.2625 42.6833 30 41.3833 30 40C30 38.6167 30.2625 37.3167 30.7875 36.1C31.3125 34.8833 32.025 33.825 32.925 32.925C33.825 32.025 34.8833 31.3125 36.1 30.7875C37.3167 30.2625 38.6167 30 40 30C41.3833 30 42.6833 30.2625 43.9 30.7875C45.1167 31.3125 46.175 32.025 47.075 32.925C47.975 33.825 48.6875 34.8833 49.2125 36.1C49.7375 37.3167 50 38.6167 50 40C50 41.3833 49.7375 42.6833 49.2125 43.9C48.6875 45.1167 47.975 46.175 47.075 47.075C46.175 47.975 45.1167 48.6875 43.9 49.2125C42.6833 49.7375 41.3833 50 40 50ZM40 48C42.2333 48 44.125 47.225 45.675 45.675C47.225 44.125 48 42.2333 48 40C48 37.7667 47.225 35.875 45.675 34.325C44.125 32.775 42.2333 32 40 32C37.7667 32 35.875 32.775 34.325 34.325C32.775 35.875 32 37.7667 32 40C32 42.2333 32.775 44.125 34.325 45.675C35.875 47.225 37.7667 48 40 48Z" fill="white"/>
</svg>
