<svg width="36" height="36" viewBox="0 0 36 36" fill="none" xmlns="http://www.w3.org/2000/svg">
<path fill-rule="evenodd" clip-rule="evenodd" d="M17.0472 28.5915C17.4246 28.5999 17.7262 28.9089 17.7262 29.2864C17.7262 29.6639 17.4245 29.9717 17.0472 29.9801H8.1047C7.51221 29.9837 6.94617 29.7348 6.54597 29.2972C6.14696 28.8584 5.95228 28.2717 6.00996 27.6814L7.45332 11.9963C7.55067 10.9119 8.45922 10.0824 9.54806 10.0836H10.6465V8.92349C10.6597 7.15986 11.6091 5.53564 13.1379 4.65821C14.6678 3.7806 16.5473 3.7806 18.0773 4.65821C19.6061 5.53583 20.5555 7.15998 20.5687 8.92349V10.0824H21.6671L21.6683 10.0836C22.756 10.0824 23.6645 10.9131 23.7619 11.9975L24.1897 16.6487C24.2174 17.025 23.9385 17.3532 23.5624 17.3869C23.1874 17.4217 22.8545 17.1488 22.8136 16.7738L22.3858 12.1225C22.3521 11.7511 22.0397 11.4673 21.6683 11.4697H20.5699V14.1819C20.5699 14.5654 20.2598 14.8756 19.8765 14.8756C19.4943 14.8756 19.183 14.5654 19.183 14.1819V11.4697H12.0336V14.1819C12.0252 14.5594 11.7175 14.8611 11.3402 14.8611C10.9628 14.8611 10.6539 14.5594 10.6467 14.1819V11.4697H9.54828C9.17573 11.4673 8.86444 11.7511 8.82961 12.1213L7.38745 27.8065C7.36462 28.0096 7.42952 28.2116 7.56773 28.3619C7.70473 28.5134 7.90061 28.5963 8.10493 28.5915L17.0472 28.5915ZM12.0332 10.0839H19.1814V8.9238C19.1814 6.94978 17.5818 5.34852 15.6073 5.34852C13.6339 5.34852 12.0332 6.94984 12.0332 8.9238V10.0839Z" fill="white"/>
<path fill-rule="evenodd" clip-rule="evenodd" d="M17.0556 28.1853C17.6538 28.1987 18.1312 28.6881 18.1312 29.2857C18.1312 29.8842 17.6529 30.3716 17.0556 30.3849L17.0466 30.3851L8.10525 30.385C7.39774 30.389 6.72284 30.0917 6.24602 29.5703L6.24524 29.5694C5.76943 29.0462 5.53706 28.3465 5.60552 27.6425L5.60564 27.6413L7.0487 11.9594C7.16507 10.6661 8.2489 9.67611 9.54745 9.67732L9.23285 12.1587M10.2403 10.083H10.6459V8.92284C10.6591 7.15921 11.6085 5.53499 13.1372 4.65756C14.6671 3.77994 16.5467 3.77994 18.0767 4.65756C19.6054 5.53517 20.5548 7.15933 20.5681 8.92284V10.0818H21.6665L21.6677 10.083C22.7554 10.0818 23.6639 10.9125 23.7613 11.9969L24.1891 16.6481C24.2167 17.0244 23.9379 17.3526 23.5617 17.3862C23.1868 17.4211 22.8539 17.1482 22.813 16.7731L22.3852 12.1219C22.3515 11.7504 22.0391 11.4667 21.6677 11.4691H20.5693V14.1812C20.5693 14.5647 20.2592 14.8749 19.8758 14.8749C19.4937 14.8749 19.1824 14.5647 19.1824 14.1812V11.4691H12.033V14.1812C12.0246 14.5587 11.7169 14.8605 11.3395 14.8605C10.9622 14.8605 10.6533 14.5587 10.6461 14.1812V11.4691H9.54767C9.17512 11.4667 8.86383 11.7504 8.829 12.1207L7.38684 27.8058C7.36401 28.009 7.4289 28.2109 7.56711 28.3612C7.70412 28.5127 7.9 28.5956 8.10432 28.5908L17.0466 28.5909C17.4239 28.5993 17.7256 28.9082 17.7256 29.2857C17.7256 29.6632 17.4239 29.971 17.0466 29.9794H8.10409C7.51159 29.983 6.94556 29.7342 6.54535 29.2965C6.14635 28.8577 5.95166 28.2711 6.00935 27.6808L7.45271 11.9957M9.23285 12.1587L7.79002 27.8511C7.78012 27.9392 7.8081 28.024 7.86568 28.0866L7.86796 28.0891C7.92464 28.1518 8.00662 28.1874 8.09477 28.1853L8.10432 28.1851L17.0556 28.1853M9.23285 12.1587C9.24826 11.9965 9.38437 11.8737 9.54505 11.8747L10.2405 11.8747V14.1812L10.2405 14.189C10.252 14.7883 10.7421 15.2661 11.3395 15.2661C11.9382 15.2661 12.4252 14.7875 12.4385 14.1903L12.4386 11.8747H18.7768V14.1812C18.7768 14.7891 19.27 15.2805 19.8758 15.2805C20.4834 15.2805 20.9749 14.7886 20.9749 14.1812V11.8747L21.6677 11.8747L21.6703 11.8747C21.8302 11.8737 21.9665 11.9963 21.9812 12.1585L22.4091 16.8103L22.4098 16.817C22.4745 17.4109 23.0022 17.8452 23.5986 17.7902C24.1949 17.7365 24.6375 17.2155 24.5936 16.6184L24.1653 11.9606C24.0544 10.7256 23.0613 9.76596 21.8416 9.68313L21.8346 9.67612H20.9737L20.9737 8.92284L20.9737 8.9198C20.9594 7.012 19.9324 5.25513 18.2787 4.30577C16.6237 3.35646 14.5903 3.35638 12.9354 4.30571C11.2817 5.25488 10.2546 7.01189 10.2403 8.9198L10.2403 9.67732H9.54745M19.1807 8.92315C19.1807 6.94913 17.5812 5.34787 15.6066 5.34787C13.6333 5.34787 12.0325 6.94919 12.0325 8.92315V10.0833H19.1807V8.92315ZM18.7751 9.67762V8.92315C18.7751 7.17294 17.3569 5.7535 15.6066 5.7535C13.8574 5.7535 12.4382 7.17308 12.4382 8.92315V9.67762H18.7751Z" fill="white"/>
<path fill-rule="evenodd" clip-rule="evenodd" d="M26.4962 24.3706H24.6291V22.5034C24.6324 22.3338 24.5678 22.1707 24.4496 22.0503C24.3314 21.9288 24.1694 21.861 23.9998 21.861C23.8313 21.861 23.6693 21.9288 23.5511 22.0503C23.4318 22.1707 23.3672 22.3338 23.3716 22.5034V24.3706H21.5045C21.162 24.3772 20.8884 24.6573 20.8884 24.9999C20.8884 25.3414 21.162 25.6216 21.5045 25.6282H23.3727V27.4954C23.3793 27.8379 23.6594 28.1115 24.002 28.1115C24.3434 28.1115 24.6236 27.8379 24.6302 27.4954V25.6282H26.4961C26.8442 25.6282 27.1254 25.3469 27.1254 24.9999C27.1254 24.6519 26.8442 24.3706 26.4962 24.3706ZM23.9998 19C22.135 19 20.375 19.8668 19.2403 21.3477C18.1043 22.8274 17.7213 24.7514 18.205 26.5529C18.6877 28.3545 19.9812 29.8297 21.7037 30.5434C23.4274 31.257 25.3854 31.1289 27.0006 30.1964C28.6159 29.2639 29.7049 27.6321 29.9488 25.7824C30.1918 23.9338 29.5614 22.0755 28.2426 20.7564C27.1187 19.6291 25.5923 18.9978 23.9998 19ZM27.3509 21.6497C26.3101 20.6089 24.8425 20.1098 23.3826 20.3024C21.9227 20.495 20.6345 21.3553 19.8979 22.6304C19.1613 23.9054 19.0606 25.4518 19.6232 26.8124C20.1868 28.1729 21.3513 29.1951 22.7739 29.576C24.1967 29.9569 25.7157 29.6548 26.8846 28.7584C28.0534 27.862 28.7374 26.4732 28.7374 25C28.7396 23.7435 28.2406 22.5373 27.3509 21.6497Z" fill="white"/>
<path fill-rule="evenodd" clip-rule="evenodd" d="M21.5077 24.3737H23.3747V22.5065C23.3704 22.3369 23.4349 22.1738 23.5542 22.0534C23.6724 21.9319 23.8344 21.8641 24.0029 21.8641C24.1726 21.8641 24.3345 21.9319 24.4527 22.0534C24.5709 22.1738 24.6355 22.3369 24.6322 22.5065V24.3737H26.4993C26.8473 24.3737 27.1286 24.655 27.1286 25.0031C27.1286 25.35 26.8473 25.6313 26.4993 25.6313H24.6333V27.4985C24.6267 27.841 24.3466 28.1147 24.0051 28.1147C23.6625 28.1147 23.3824 27.8411 23.3758 27.4985V25.6313H21.5077C21.1651 25.6247 20.8915 25.3445 20.8915 25.0031C20.8915 24.6605 21.1651 24.3803 21.5077 24.3737ZM23.0758 25.9313H21.5019C20.9955 25.9216 20.5915 25.5075 20.5915 25.0031C20.5915 24.4978 20.9952 24.0835 21.5019 24.0738L21.5077 24.0737L23.0747 24.0737V22.51C23.0694 22.2608 23.1648 22.0207 23.3401 21.8432C23.515 21.664 23.7543 21.5641 24.0029 21.5641C24.2527 21.5641 24.4922 21.664 24.6673 21.8437C24.8413 22.0213 24.9362 22.2608 24.9322 22.5092V24.0737H26.4993C27.013 24.0737 27.4286 24.4893 27.4286 25.0031C27.4286 25.516 27.0127 25.9313 26.4993 25.9313H24.9333V27.5042C24.9236 28.0106 24.5096 28.4147 24.0051 28.4147C23.4999 28.4147 23.0856 28.011 23.0759 27.5042L23.0758 27.4985L23.0758 25.9313ZM21.7069 30.5465C19.9844 29.8328 18.6908 28.3576 18.2081 26.5561C17.7244 24.7545 18.1075 22.8305 19.2434 21.3508C20.3781 19.87 22.1381 19.0031 24.0029 19.0031C25.5954 19.0009 27.1218 19.6322 28.2458 20.7595C29.5645 22.0786 30.1949 23.9369 29.9519 25.7855C29.708 27.6352 28.6191 29.267 27.0037 30.1995C25.3886 31.132 23.4306 31.2601 21.7069 30.5465ZM28.4581 20.5475C29.8427 21.9326 30.5045 23.8837 30.2494 25.8246C29.9933 27.7665 28.85 29.4801 27.1537 30.4593C25.4577 31.4385 23.4019 31.5729 21.5921 30.8237C19.7834 30.0743 18.4251 28.5253 17.9184 26.6337C17.4105 24.742 17.8127 22.7219 19.0054 21.1682C20.1969 19.6132 22.045 18.7031 24.0029 18.7031C24.0028 18.7031 24.0031 18.7031 24.0029 18.7031C25.6749 18.7009 27.2777 19.3638 28.4581 20.5475ZM27.1419 21.865C26.167 20.89 24.7923 20.4226 23.425 20.603C22.0574 20.7834 20.8508 21.5892 20.1608 22.7836C19.471 23.9777 19.3766 25.4263 19.9035 26.7009C20.4315 27.9752 21.5223 28.9326 22.8547 29.2893C24.1873 29.6461 25.6102 29.3631 26.7051 28.5235C27.7998 27.684 28.4405 26.3831 28.4405 25.0031C28.4426 23.8265 27.9751 22.6961 27.1419 21.865ZM19.6263 26.8156C19.0638 25.455 19.1645 23.9086 19.901 22.6335C20.6377 21.3584 21.9258 20.4982 23.3857 20.3055C24.8457 20.1129 26.3133 20.612 27.354 21.6528C28.2438 22.5404 28.7427 23.7466 28.7405 25.0031C28.7405 26.4763 28.0565 27.8652 26.8877 28.7615C25.7188 29.6579 24.1998 29.96 22.7771 29.5791C21.3544 29.1982 20.1899 28.176 19.6263 26.8156Z" fill="white"/>
</svg>
