<svg width="17" height="16" viewBox="0 0 17 16" fill="none" xmlns="http://www.w3.org/2000/svg">
<path d="M8.80469 8C7.70469 8 6.76302 7.60833 5.97969 6.825C5.19635 6.04167 4.80469 5.1 4.80469 4C4.80469 2.9 5.19635 1.95833 5.97969 1.175C6.76302 0.391667 7.70469 0 8.80469 0C9.90469 0 10.8464 0.391667 11.6297 1.175C12.413 1.95833 12.8047 2.9 12.8047 4C12.8047 5.1 12.413 6.04167 11.6297 6.825C10.8464 7.60833 9.90469 8 8.80469 8ZM0.804688 16V13.2C0.804688 12.6333 0.950521 12.1125 1.24219 11.6375C1.53385 11.1625 1.92135 10.8 2.40469 10.55C3.43802 10.0333 4.48802 9.64583 5.55469 9.3875C6.62135 9.12917 7.70469 9 8.80469 9C9.90469 9 10.988 9.12917 12.0547 9.3875C13.1214 9.64583 14.1714 10.0333 15.2047 10.55C15.688 10.8 16.0755 11.1625 16.3672 11.6375C16.6589 12.1125 16.8047 12.6333 16.8047 13.2V16H0.804688ZM2.80469 14H14.8047V13.2C14.8047 13.0167 14.7589 12.85 14.6672 12.7C14.5755 12.55 14.4547 12.4333 14.3047 12.35C13.4047 11.9 12.4964 11.5625 11.5797 11.3375C10.663 11.1125 9.73802 11 8.80469 11C7.87135 11 6.94635 11.1125 6.02969 11.3375C5.11302 11.5625 4.20469 11.9 3.30469 12.35C3.15469 12.4333 3.03385 12.55 2.94219 12.7C2.85052 12.85 2.80469 13.0167 2.80469 13.2V14ZM8.80469 6C9.35469 6 9.82552 5.80417 10.2172 5.4125C10.6089 5.02083 10.8047 4.55 10.8047 4C10.8047 3.45 10.6089 2.97917 10.2172 2.5875C9.82552 2.19583 9.35469 2 8.80469 2C8.25469 2 7.78385 2.19583 7.39219 2.5875C7.00052 2.97917 6.80469 3.45 6.80469 4C6.80469 4.55 7.00052 5.02083 7.39219 5.4125C7.78385 5.80417 8.25469 6 8.80469 6Z" fill="#35973D"/>
</svg>
