<svg width="18" height="18" viewBox="0 0 18 18" fill="none" xmlns="http://www.w3.org/2000/svg">
<path d="M0.664062 4.83073V0.664062H4.83073V2.33073H2.33073V4.83073H0.664062ZM0.664062 17.3307V13.1641H2.33073V15.6641H4.83073V17.3307H0.664062ZM13.1641 17.3307V15.6641H15.6641V13.1641H17.3307V17.3307H13.1641ZM15.6641 4.83073V2.33073H13.1641V0.664062H17.3307V4.83073H15.6641ZM13.5807 13.5807H14.8307V14.8307H13.5807V13.5807ZM13.5807 11.0807H14.8307V12.3307H13.5807V11.0807ZM12.3307 12.3307H13.5807V13.5807H12.3307V12.3307ZM11.0807 13.5807H12.3307V14.8307H11.0807V13.5807ZM9.83073 12.3307H11.0807V13.5807H9.83073V12.3307ZM12.3307 9.83073H13.5807V11.0807H12.3307V9.83073ZM11.0807 11.0807H12.3307V12.3307H11.0807V11.0807ZM9.83073 9.83073H11.0807V11.0807H9.83073V9.83073ZM14.8307 3.16406V8.16406H9.83073V3.16406H14.8307ZM8.16406 9.83073V14.8307H3.16406V9.83073H8.16406ZM8.16406 3.16406V8.16406H3.16406V3.16406H8.16406ZM6.91406 13.5807V11.0807H4.41406V13.5807H6.91406ZM6.91406 6.91406V4.41406H4.41406V6.91406H6.91406ZM13.5807 6.91406V4.41406H11.0807V6.91406H13.5807Z" fill="white"/>
</svg>
