<svg width="14" height="14" viewBox="0 0 14 14" fill="none" xmlns="http://www.w3.org/2000/svg">
<path d="M0.335938 13.6693V12.0026H2.6276L2.29427 11.7109C1.57205 11.072 1.0651 10.3429 0.773437 9.52344C0.481771 8.70399 0.335938 7.8776 0.335938 7.04427C0.335938 5.5026 0.797743 4.13108 1.72135 2.92969C2.64497 1.7283 3.84983 0.93316 5.33594 0.544271V2.29427C4.33594 2.65538 3.53038 3.26997 2.91927 4.13802C2.30816 5.00608 2.0026 5.97483 2.0026 7.04427C2.0026 7.66927 2.12066 8.27691 2.35677 8.86719C2.59288 9.45747 2.96094 10.0026 3.46094 10.5026L3.66927 10.7109V8.66927H5.33594V13.6693H0.335938ZM8.66927 13.4609V11.7109C9.66927 11.3498 10.4748 10.7352 11.0859 9.86719C11.697 8.99913 12.0026 8.03038 12.0026 6.96094C12.0026 6.33594 11.8845 5.7283 11.6484 5.13802C11.4123 4.54774 11.0443 4.0026 10.5443 3.5026L10.3359 3.29427V5.33594H8.66927V0.335938H13.6693V2.0026H11.3776L11.7109 2.29427C12.3915 2.97483 12.888 3.71441 13.2005 4.51302C13.513 5.31163 13.6693 6.1276 13.6693 6.96094C13.6693 8.5026 13.2075 9.87413 12.2839 11.0755C11.3602 12.2769 10.1554 13.072 8.66927 13.4609Z" fill="#1F2A37"/>
</svg>
