<svg width="24" height="25" viewBox="0 0 24 25" fill="none" xmlns="http://www.w3.org/2000/svg">
<rect y="0.5" width="24" height="24" rx="12" fill="#EAF4EB"/>
<path d="M6.66699 17.8332V16.4998H8.50033L8.23366 16.2665C7.65588 15.7554 7.25033 15.1721 7.01699 14.5165C6.78366 13.8609 6.66699 13.1998 6.66699 12.5332C6.66699 11.2998 7.03644 10.2026 7.77533 9.2415C8.51421 8.28039 9.4781 7.64428 10.667 7.33317V8.73317C9.86699 9.02206 9.22255 9.51373 8.73366 10.2082C8.24477 10.9026 8.00033 11.6776 8.00033 12.5332C8.00033 13.0332 8.09477 13.5193 8.28366 13.9915C8.47255 14.4637 8.76699 14.8998 9.16699 15.2998L9.33366 15.4665V13.8332H10.667V17.8332H6.66699ZM13.3337 17.6665V16.2665C14.1337 15.9776 14.7781 15.4859 15.267 14.7915C15.7559 14.0971 16.0003 13.3221 16.0003 12.4665C16.0003 11.9665 15.9059 11.4804 15.717 11.0082C15.5281 10.5359 15.2337 10.0998 14.8337 9.69984L14.667 9.53317V11.1665H13.3337V7.1665H17.3337V8.49984H15.5003L15.767 8.73317C16.3114 9.27761 16.7087 9.86928 16.9587 10.5082C17.2087 11.1471 17.3337 11.7998 17.3337 12.4665C17.3337 13.6998 16.9642 14.7971 16.2253 15.7582C15.4864 16.7193 14.5225 17.3554 13.3337 17.6665Z" fill="#35973D"/>
</svg>
