<svg width="27" height="27" viewBox="0 0 27 27" fill="none" xmlns="http://www.w3.org/2000/svg">
<path d="M22.2333 23.1667L23.1667 22.2333L20.6667 19.7333V16H19.3333V20.2667L22.2333 23.1667ZM2.66667 24C1.93333 24 1.30556 23.7389 0.783333 23.2167C0.261111 22.6944 0 22.0667 0 21.3333L0 2.66667C0 1.93333 0.261111 1.30556 0.783333 0.783333C1.30556 0.261111 1.93333 0 2.66667 0L21.3333 0C22.0667 0 22.6944 0.261111 23.2167 0.783333C23.7389 1.30556 24 1.93333 24 2.66667V11.6C23.5778 11.4 23.1444 11.2278 22.7 11.0833C22.2556 10.9389 21.8 10.8333 21.3333 10.7667V2.66667L2.66667 2.66667L2.66667 21.3333H10.7333C10.8 21.8222 10.9056 22.2889 11.05 22.7333C11.1944 23.1778 11.3667 23.6 11.5667 24H2.66667ZM2.66667 20V21.3333L2.66667 2.66667L2.66667 10.7667V10.6667L2.66667 20ZM5.33333 18.6667H10.7667C10.8333 18.2 10.9389 17.7444 11.0833 17.3C11.2278 16.8556 11.3889 16.4222 11.5667 16H5.33333V18.6667ZM5.33333 13.3333H13.4667C14.1778 12.6667 14.9722 12.1111 15.85 11.6667C16.7278 11.2222 17.6667 10.9222 18.6667 10.7667V10.6667L5.33333 10.6667V13.3333ZM5.33333 8L18.6667 8V5.33333L5.33333 5.33333L5.33333 8ZM20 26.6667C18.1556 26.6667 16.5833 26.0167 15.2833 24.7167C13.9833 23.4167 13.3333 21.8444 13.3333 20C13.3333 18.1556 13.9833 16.5833 15.2833 15.2833C16.5833 13.9833 18.1556 13.3333 20 13.3333C21.8444 13.3333 23.4167 13.9833 24.7167 15.2833C26.0167 16.5833 26.6667 18.1556 26.6667 20C26.6667 21.8444 26.0167 23.4167 24.7167 24.7167C23.4167 26.0167 21.8444 26.6667 20 26.6667Z" fill="white"/>
</svg>
