<svg width="17" height="19" viewBox="0 0 17 19" fill="none" xmlns="http://www.w3.org/2000/svg">
<path d="M7.5 18.95C5.48333 18.7 3.8125 17.8208 2.4875 16.3125C1.1625 14.8042 0.5 13.0333 0.5 11C0.5 9.9 0.716667 8.84583 1.15 7.8375C1.58333 6.82917 2.2 5.95 3 5.2L4.425 6.625C3.79167 7.19167 3.3125 7.85 2.9875 8.6C2.6625 9.35 2.5 10.15 2.5 11C2.5 12.4667 2.96667 13.7625 3.9 14.8875C4.83333 16.0125 6.03333 16.7 7.5 16.95V18.95ZM9.5 18.95V16.95C10.95 16.6833 12.1458 15.9917 13.0875 14.875C14.0292 13.7583 14.5 12.4667 14.5 11C14.5 9.33333 13.9167 7.91667 12.75 6.75C11.5833 5.58333 10.1667 5 8.5 5H8.425L9.525 6.1L8.125 7.5L4.625 4L8.125 0.5L9.525 1.9L8.425 3H8.5C10.7333 3 12.625 3.775 14.175 5.325C15.725 6.875 16.5 8.76667 16.5 11C16.5 13.0167 15.8375 14.7792 14.5125 16.2875C13.1875 17.7958 11.5167 18.6833 9.5 18.95Z" fill="#F9FAFB"/>
</svg>
