<svg width="18" height="17" viewBox="0 0 18 17" fill="none" xmlns="http://www.w3.org/2000/svg">
<path d="M7.83073 12.3307L13.7057 6.45573L12.5391 5.28906L7.83073 9.9974L5.45573 7.6224L4.28906 8.78906L7.83073 12.3307ZM8.9974 16.8307C7.84462 16.8307 6.76128 16.612 5.7474 16.1745C4.73351 15.737 3.85156 15.1432 3.10156 14.3932C2.35156 13.6432 1.75781 12.7613 1.32031 11.7474C0.882812 10.7335 0.664062 9.65017 0.664062 8.4974C0.664062 7.34462 0.882812 6.26128 1.32031 5.2474C1.75781 4.23351 2.35156 3.35156 3.10156 2.60156C3.85156 1.85156 4.73351 1.25781 5.7474 0.820312C6.76128 0.382812 7.84462 0.164062 8.9974 0.164062C10.1502 0.164062 11.2335 0.382812 12.2474 0.820312C13.2613 1.25781 14.1432 1.85156 14.8932 2.60156C15.6432 3.35156 16.237 4.23351 16.6745 5.2474C17.112 6.26128 17.3307 7.34462 17.3307 8.4974C17.3307 9.65017 17.112 10.7335 16.6745 11.7474C16.237 12.7613 15.6432 13.6432 14.8932 14.3932C14.1432 15.1432 13.2613 15.737 12.2474 16.1745C11.2335 16.612 10.1502 16.8307 8.9974 16.8307Z" fill="#39B26F"/>
</svg>
