<svg width="18" height="18" viewBox="0 0 18 18" fill="none" xmlns="http://www.w3.org/2000/svg">
<path d="M7.83073 12.8307L13.7057 6.95573L12.5391 5.78906L7.83073 10.4974L5.45573 8.1224L4.28906 9.28906L7.83073 12.8307ZM8.9974 17.3307C7.84462 17.3307 6.76128 17.112 5.7474 16.6745C4.73351 16.237 3.85156 15.6432 3.10156 14.8932C2.35156 14.1432 1.75781 13.2613 1.32031 12.2474C0.882812 11.2335 0.664062 10.1502 0.664062 8.9974C0.664062 7.84462 0.882812 6.76128 1.32031 5.7474C1.75781 4.73351 2.35156 3.85156 3.10156 3.10156C3.85156 2.35156 4.73351 1.75781 5.7474 1.32031C6.76128 0.882812 7.84462 0.664062 8.9974 0.664062C10.1502 0.664062 11.2335 0.882812 12.2474 1.32031C13.2613 1.75781 14.1432 2.35156 14.8932 3.10156C15.6432 3.85156 16.237 4.73351 16.6745 5.7474C17.112 6.76128 17.3307 7.84462 17.3307 8.9974C17.3307 10.1502 17.112 11.2335 16.6745 12.2474C16.237 13.2613 15.6432 14.1432 14.8932 14.8932C14.1432 15.6432 13.2613 16.237 12.2474 16.6745C11.2335 17.112 10.1502 17.3307 8.9974 17.3307ZM8.9974 15.6641C10.8585 15.6641 12.4349 15.0182 13.7266 13.7266C15.0182 12.4349 15.6641 10.8585 15.6641 8.9974C15.6641 7.13628 15.0182 5.5599 13.7266 4.26823C12.4349 2.97656 10.8585 2.33073 8.9974 2.33073C7.13628 2.33073 5.5599 2.97656 4.26823 4.26823C2.97656 5.5599 2.33073 7.13628 2.33073 8.9974C2.33073 10.8585 2.97656 12.4349 4.26823 13.7266C5.5599 15.0182 7.13628 15.6641 8.9974 15.6641Z" fill="white"/>
</svg>
