<svg width="20" height="10" viewBox="0 0 20 10" fill="none" xmlns="http://www.w3.org/2000/svg">
<path d="M2.5026 10C2.04427 10 1.65191 9.83681 1.32552 9.51042C0.999132 9.18403 0.835938 8.79167 0.835938 8.33333C0.835938 7.875 0.999132 7.48264 1.32552 7.15625C1.65191 6.82986 2.04427 6.66667 2.5026 6.66667H2.72135C2.78385 6.66667 2.84983 6.68056 2.91927 6.70833L6.71094 2.91667C6.68316 2.84722 6.66927 2.78125 6.66927 2.71875V2.5C6.66927 2.04167 6.83247 1.64931 7.15885 1.32292C7.48524 0.996528 7.8776 0.833333 8.33594 0.833333C8.79427 0.833333 9.18663 0.996528 9.51302 1.32292C9.83941 1.64931 10.0026 2.04167 10.0026 2.5C10.0026 2.52778 9.98872 2.66667 9.96094 2.91667L12.0859 5.04167C12.1554 5.01389 12.2214 5 12.2839 5H12.7214C12.7839 5 12.8498 5.01389 12.9193 5.04167L15.8776 2.08333C15.8498 2.01389 15.8359 1.94792 15.8359 1.88542V1.66667C15.8359 1.20833 15.9991 0.815972 16.3255 0.489583C16.6519 0.163194 17.0443 0 17.5026 0C17.9609 0 18.3533 0.163194 18.6797 0.489583C19.0061 0.815972 19.1693 1.20833 19.1693 1.66667C19.1693 2.125 19.0061 2.51736 18.6797 2.84375C18.3533 3.17014 17.9609 3.33333 17.5026 3.33333H17.2839C17.2214 3.33333 17.1554 3.31944 17.0859 3.29167L14.1276 6.25C14.1554 6.31944 14.1693 6.38542 14.1693 6.44792V6.66667C14.1693 7.125 14.0061 7.51736 13.6797 7.84375C13.3533 8.17014 12.9609 8.33333 12.5026 8.33333C12.0443 8.33333 11.6519 8.17014 11.3255 7.84375C10.9991 7.51736 10.8359 7.125 10.8359 6.66667V6.44792C10.8359 6.38542 10.8498 6.31944 10.8776 6.25L8.7526 4.125C8.68316 4.15278 8.61719 4.16667 8.55469 4.16667H8.33594C8.30816 4.16667 8.16927 4.15278 7.91927 4.125L4.1276 7.91667C4.15538 7.98611 4.16927 8.05208 4.16927 8.11458V8.33333C4.16927 8.79167 4.00608 9.18403 3.67969 9.51042C3.3533 9.83681 2.96094 10 2.5026 10Z" fill="#6B7280"/>
</svg>
