<svg width="18" height="18" viewBox="0 0 18 18" fill="none" xmlns="http://www.w3.org/2000/svg">
<path d="M8.2 1H3.8C2.80589 1 2 1.80589 2 2.8V7.2C2 8.19411 2.80589 9 3.8 9H8.2C9.19411 9 10 8.19411 10 7.2V2.8C10 1.80589 9.19411 1 8.2 1Z" stroke="#35973D" stroke-width="1.3"/>
<path d="M1 10.8C1 9.8059 1.80589 9 2.8 9H7.2C8.1941 9 9 9.8059 9 10.8V17H2.8C1.80589 17 1 16.1941 1 15.2V10.8Z" stroke="#35973D" stroke-width="1.3"/>
<path d="M9 10.8C9 9.8059 9.8059 9 10.8 9H15.2C16.1941 9 17 9.8059 17 10.8V15.2C17 16.1941 16.1941 17 15.2 17H9V10.8Z" stroke="#35973D" stroke-width="1.3"/>
<path d="M13 9V12" stroke="#35973D" stroke-width="1.3" stroke-linecap="round"/>
<path d="M5 9V12" stroke="#35973D" stroke-width="1.3" stroke-linecap="round"/>
<path d="M6 1V4" stroke="#35973D" stroke-width="1.3" stroke-linecap="round"/>
</svg>
