<svg width="28" height="26" viewBox="0 0 28 26" fill="none" xmlns="http://www.w3.org/2000/svg">
<path d="M26.9926 6.1162H26.5776V5.29005C26.5776 5.01096 26.3506 4.78394 26.0715 4.78394H24.7328V2.38864C24.7328 1.36439 23.8995 0.53125 22.8754 0.53125H4.99608C3.97183 0.53125 3.13869 1.36439 3.13869 2.38864V4.78394H1.92415C1.64457 4.78394 1.41722 5.01129 1.41722 5.29087V6.1162H1.00221C0.815468 6.1162 0.664062 6.26759 0.664062 6.45435V10.2032C0.664062 10.3899 0.815468 10.5413 1.00221 10.5413H2.16973C2.35648 10.5413 2.50786 10.3899 2.50786 10.2032V6.45435C2.50786 6.26759 2.35648 6.1162 2.16973 6.1162H1.75462V5.29087C1.75462 5.19746 1.83074 5.12134 1.92415 5.12134H3.13869V20.9428C3.13869 21.9668 3.97183 22.8001 4.99608 22.8001H5.27613V24.2885C5.27613 24.9413 5.80529 25.4704 6.45802 25.4704H7.80572C8.45846 25.4704 8.98761 24.9413 8.98761 24.2885V22.8001H18.8972V24.2886C18.8972 24.9413 19.4263 25.4704 20.0791 25.4704H21.4269C22.0796 25.4704 22.6087 24.9413 22.6087 24.2886V22.8001H22.8754C23.8995 22.8001 24.7328 21.9668 24.7328 20.9428V5.12134H26.0715C26.1644 5.12134 26.2402 5.19696 26.2402 5.29005V6.1162H25.8251C25.6383 6.1162 25.4869 6.26759 25.4869 6.45435V10.2032C25.4869 10.3899 25.6383 10.5413 25.8251 10.5413H26.9926C27.1793 10.5413 27.3307 10.3899 27.3307 10.2032V6.45435C27.3307 6.26759 27.1793 6.1162 26.9926 6.1162ZM20.7531 19.1453C19.73 19.1453 18.8973 18.3127 18.8973 17.2896C18.8973 16.2665 19.73 15.4339 20.7531 15.4339C21.7762 15.4339 22.6088 16.2665 22.6088 17.2896C22.6088 18.3127 21.7762 19.1453 20.7531 19.1453ZM16.6643 19.0817V20.2205C16.6643 20.3174 16.5856 20.3961 16.4887 20.3961H11.5062C11.4095 20.3961 11.3307 20.3174 11.3307 20.2205V19.0817C11.3307 18.9849 11.4095 18.9061 11.5062 18.9061H16.4887C16.5856 18.9061 16.6643 18.9849 16.6643 19.0817ZM7.1197 19.1918C6.09644 19.1918 5.26396 18.3592 5.26396 17.3361C5.26396 16.313 6.09644 15.4803 7.1197 15.4803C8.14296 15.4803 8.97544 16.313 8.97544 17.3361C8.97544 18.3592 8.14296 19.1918 7.1197 19.1918ZM7.09729 2.98487V2.30709C7.09729 2.02883 7.32366 1.80246 7.60192 1.80246H20.4265C20.7046 1.80246 20.931 2.02883 20.931 2.30709V2.98487C20.931 3.26313 20.7046 3.4895 20.4265 3.4895H7.60192C7.32366 3.4895 7.09729 3.26313 7.09729 2.98487ZM15.5434 13.6275L19.2926 14.1098H14.948C14.6689 14.1098 14.4418 13.8827 14.4418 13.6037V5.26912C14.4418 4.99004 14.6689 4.76301 14.948 4.76301H21.6974C21.9758 4.76301 22.2022 4.98954 22.2022 5.26797V13.6048C22.2022 13.842 22.0373 14.0403 21.8164 14.0941L15.5862 13.2928C15.4956 13.283 15.4093 13.346 15.3974 13.4386C15.3855 13.531 15.4508 13.6155 15.5434 13.6275ZM12.7616 14.1098L6.40963 13.2928C6.31539 13.2839 6.23269 13.3465 6.22066 13.4386C6.2088 13.531 6.27404 13.6155 6.36646 13.6275L10.1156 14.1098H6.17437C5.89577 14.1098 5.66924 13.8832 5.66924 13.6048V5.26797C5.66924 4.98954 5.89577 4.76301 6.17437 4.76301H12.9235C13.2026 4.76301 13.4296 4.99004 13.4296 5.26912V13.6037C13.4296 13.8827 13.2026 14.1098 12.9235 14.1098H12.7616Z" fill="#6B7280"/>
</svg>
