<svg width="26" height="26" viewBox="0 0 26 26" fill="none" xmlns="http://www.w3.org/2000/svg">
<rect width="26" height="26" rx="13" fill="#EAF4EB"/>
<path d="M9.00008 19.6665C8.63341 19.6665 8.31953 19.5359 8.05841 19.2748C7.7973 19.0137 7.66675 18.6998 7.66675 18.3332V11.6665C7.66675 11.2998 7.7973 10.9859 8.05841 10.7248C8.31953 10.4637 8.63341 10.3332 9.00008 10.3332H9.66675V8.99984C9.66675 8.07762 9.99175 7.2915 10.6417 6.6415C11.2917 5.9915 12.0779 5.6665 13.0001 5.6665C13.9223 5.6665 14.7084 5.9915 15.3584 6.6415C16.0084 7.2915 16.3334 8.07762 16.3334 8.99984V10.3332H17.0001C17.3667 10.3332 17.6806 10.4637 17.9417 10.7248C18.2029 10.9859 18.3334 11.2998 18.3334 11.6665V18.3332C18.3334 18.6998 18.2029 19.0137 17.9417 19.2748C17.6806 19.5359 17.3667 19.6665 17.0001 19.6665H9.00008ZM13.0001 16.3332C13.3667 16.3332 13.6806 16.2026 13.9417 15.9415C14.2029 15.6804 14.3334 15.3665 14.3334 14.9998C14.3334 14.6332 14.2029 14.3193 13.9417 14.0582C13.6806 13.7971 13.3667 13.6665 13.0001 13.6665C12.6334 13.6665 12.3195 13.7971 12.0584 14.0582C11.7973 14.3193 11.6667 14.6332 11.6667 14.9998C11.6667 15.3665 11.7973 15.6804 12.0584 15.9415C12.3195 16.2026 12.6334 16.3332 13.0001 16.3332ZM11.0001 10.3332H15.0001V8.99984C15.0001 8.44428 14.8056 7.97206 14.4167 7.58317C14.0279 7.19428 13.5556 6.99984 13.0001 6.99984C12.4445 6.99984 11.9723 7.19428 11.5834 7.58317C11.1945 7.97206 11.0001 8.44428 11.0001 8.99984V10.3332Z" fill="#35973D"/>
</svg>
