<svg width="19" height="13" viewBox="0 0 19 13" fill="none" xmlns="http://www.w3.org/2000/svg">
<path d="M9.5026 10.3359C10.5443 10.3359 11.4297 9.97135 12.1589 9.24219C12.888 8.51302 13.2526 7.6276 13.2526 6.58594C13.2526 5.54427 12.888 4.65885 12.1589 3.92969C11.4297 3.20052 10.5443 2.83594 9.5026 2.83594C8.46094 2.83594 7.57552 3.20052 6.84635 3.92969C6.11719 4.65885 5.7526 5.54427 5.7526 6.58594C5.7526 7.6276 6.11719 8.51302 6.84635 9.24219C7.57552 9.97135 8.46094 10.3359 9.5026 10.3359ZM9.5026 8.83594C8.8776 8.83594 8.34635 8.61719 7.90885 8.17969C7.47135 7.74219 7.2526 7.21094 7.2526 6.58594C7.2526 5.96094 7.47135 5.42969 7.90885 4.99219C8.34635 4.55469 8.8776 4.33594 9.5026 4.33594C10.1276 4.33594 10.6589 4.55469 11.0964 4.99219C11.5339 5.42969 11.7526 5.96094 11.7526 6.58594C11.7526 7.21094 11.5339 7.74219 11.0964 8.17969C10.6589 8.61719 10.1276 8.83594 9.5026 8.83594ZM9.5026 12.8359C7.47483 12.8359 5.6276 12.27 3.96094 11.138C2.29427 10.0061 1.08594 8.48872 0.335938 6.58594C1.08594 4.68316 2.29427 3.1658 3.96094 2.03385C5.6276 0.90191 7.47483 0.335938 9.5026 0.335938C11.5304 0.335938 13.3776 0.90191 15.0443 2.03385C16.7109 3.1658 17.9193 4.68316 18.6693 6.58594C17.9193 8.48872 16.7109 10.0061 15.0443 11.138C13.3776 12.27 11.5304 12.8359 9.5026 12.8359ZM9.5026 11.1693C11.072 11.1693 12.513 10.7561 13.8255 9.92969C15.138 9.1033 16.1415 7.98872 16.8359 6.58594C16.1415 5.18316 15.138 4.06858 13.8255 3.24219C12.513 2.4158 11.072 2.0026 9.5026 2.0026C7.93316 2.0026 6.49219 2.4158 5.17969 3.24219C3.86719 4.06858 2.86372 5.18316 2.16927 6.58594C2.86372 7.98872 3.86719 9.1033 5.17969 9.92969C6.49219 10.7561 7.93316 11.1693 9.5026 11.1693Z" fill="black"/>
</svg>
