<svg width="32" height="32" viewBox="0 0 32 32" fill="none" xmlns="http://www.w3.org/2000/svg">
<rect width="32" height="32" rx="16" fill="white"/>
<path d="M7.75 22.75L16 8.5L24.25 22.75H7.75ZM10.3375 21.25H21.6625L16 11.5L10.3375 21.25ZM16 20.5C16.2125 20.5 16.3906 20.4281 16.5344 20.2844C16.6781 20.1406 16.75 19.9625 16.75 19.75C16.75 19.5375 16.6781 19.3594 16.5344 19.2156C16.3906 19.0719 16.2125 19 16 19C15.7875 19 15.6094 19.0719 15.4656 19.2156C15.3219 19.3594 15.25 19.5375 15.25 19.75C15.25 19.9625 15.3219 20.1406 15.4656 20.2844C15.6094 20.4281 15.7875 20.5 16 20.5ZM15.25 18.25H16.75V14.5H15.25V18.25Z" fill="#FF5A1F"/>
</svg>
