<svg width="27" height="26" viewBox="0 0 27 26" fill="none" xmlns="http://www.w3.org/2000/svg">
<path d="M7.48011 5.46803C8.98642 5.46803 10.179 4.24486 10.179 2.76917C10.179 1.26286 8.9558 0.0703125 7.48011 0.0703125C5.9738 0.0703125 4.78125 1.29348 4.78125 2.76917C4.78125 4.24483 6.00565 5.46803 7.48011 5.46803Z" fill="#6B7280"/>
<path d="M19.7072 5.46803C21.2135 5.46803 22.4061 4.24486 22.4061 2.76917C22.4061 1.26286 21.1829 0.0703125 19.7072 0.0703125C18.2009 0.0703125 17.0084 1.29348 17.0084 2.76917C16.9777 4.24483 18.2009 5.46803 19.7072 5.46803Z" fill="#6B7280"/>
<path d="M26.8306 14.1007L23.9749 7.29234C23.7862 6.85358 23.3793 6.60232 22.9392 6.60232H16.4447C16.0059 6.60232 15.5659 6.88421 15.409 7.29234L13.5902 11.5906L11.802 7.26034C11.6132 6.82157 11.2063 6.57031 10.7663 6.57031H4.23972C3.80095 6.57031 3.36093 6.85221 3.20405 7.26034L0.349531 14.1007C0.0982763 14.6963 0.381397 15.3557 0.977056 15.607C1.5727 15.8582 2.23211 15.5751 2.48337 14.9795L4.27156 10.7117V24.4852V24.5796V24.7046C4.27156 24.7671 4.30343 24.799 4.30343 24.8615C4.30343 24.8933 4.33529 24.9559 4.33529 24.9865C4.36716 25.049 4.36716 25.0809 4.3978 25.1115C4.42967 25.1434 4.42967 25.2059 4.46031 25.2365C4.49218 25.2684 4.49218 25.299 4.52282 25.3309C4.55468 25.3628 4.58533 25.4253 4.61719 25.4559C4.64906 25.4878 4.64906 25.5184 4.6797 25.5184C4.71156 25.5503 4.77407 25.6128 4.83658 25.6434L4.89909 25.7059C4.9616 25.7378 5.0241 25.7685 5.08783 25.8003C5.1197 25.8003 5.1197 25.8322 5.15034 25.8322C5.21285 25.8641 5.30722 25.8947 5.36973 25.8947H5.43224C5.52661 25.8947 5.58912 25.9266 5.68349 25.9266H5.71536H5.74722H5.8416C5.87346 25.9266 5.90411 25.9266 5.93597 25.8947C5.96784 25.8947 6.03035 25.8947 6.06099 25.8628C6.09285 25.8628 6.15536 25.831 6.186 25.831C6.24851 25.7991 6.28038 25.7991 6.34288 25.7685C6.37475 25.7685 6.40539 25.7366 6.40539 25.7366C6.78166 25.5172 7.0648 25.1409 7.15792 24.7009C7.15792 24.6384 7.15792 24.5759 7.18979 24.544V24.4815V24.4497V18.0542C7.18979 17.8655 7.34667 17.7086 7.53543 17.7086C7.72419 17.7086 7.88107 17.8655 7.88107 18.0542V24.4544V24.4862V24.5487C7.88107 24.6113 7.88107 24.6738 7.91293 24.7056C7.97544 25.1444 8.25857 25.5219 8.66546 25.7413C8.69733 25.7413 8.72797 25.7732 8.72797 25.7732C8.75984 25.805 8.82234 25.805 8.88485 25.8357C8.91672 25.8357 8.97922 25.8675 9.00987 25.8675C9.04173 25.8675 9.10424 25.8675 9.13488 25.8994C9.16675 25.8994 9.19739 25.8994 9.22926 25.9313H9.32363H9.35549H9.38736C9.48173 25.9313 9.54424 25.9313 9.63861 25.8994H9.70112C9.76363 25.8675 9.858 25.8675 9.92051 25.8369C9.95238 25.8369 9.95238 25.805 9.98302 25.805C10.0455 25.7732 10.108 25.7425 10.1718 25.7107C10.2036 25.7107 10.2343 25.6788 10.2343 25.6481C10.2968 25.6163 10.3286 25.5856 10.3912 25.5231C10.423 25.4913 10.423 25.4913 10.4537 25.4606C10.4855 25.4288 10.5162 25.3662 10.548 25.3356C10.5799 25.3037 10.5799 25.2731 10.6105 25.2412C10.6424 25.2094 10.6424 25.1469 10.6731 25.1162C10.7049 25.0844 10.7049 25.0218 10.7356 24.9912C10.7356 24.9593 10.7674 24.8968 10.7674 24.8662C10.7674 24.8037 10.7993 24.7718 10.7993 24.7093V24.5843V24.4899L10.7981 10.7113L12.5863 14.9791C12.775 15.4179 13.2138 15.7011 13.6526 15.6692C14.0913 15.6692 14.5313 15.4179 14.7188 14.9791L16.507 10.7113V24.4849V24.5793V24.7043C16.507 24.7668 16.5389 24.7987 16.5389 24.8612C16.5389 24.893 16.5708 24.9555 16.5708 24.9862C16.6026 25.0487 16.6026 25.0806 16.6333 25.1112C16.6651 25.1431 16.6651 25.2056 16.6958 25.2362C16.7277 25.2681 16.7276 25.2987 16.7583 25.3306C16.7902 25.3625 16.8208 25.425 16.8527 25.4556C16.8845 25.4875 16.8845 25.5181 16.9152 25.5181C16.947 25.55 17.0095 25.6125 17.0721 25.6431L17.1346 25.7056C17.1971 25.7375 17.2596 25.7681 17.3233 25.8C17.3552 25.8 17.3552 25.8319 17.3858 25.8319C17.4483 25.8637 17.5427 25.8944 17.6052 25.8944H17.6677C17.7621 25.8944 17.8246 25.9262 17.919 25.9262H17.9508H17.9827H18.0771C18.1089 25.9262 18.1396 25.9262 18.1714 25.8944C18.2033 25.8944 18.2658 25.8944 18.2965 25.8625C18.3283 25.8625 18.3908 25.8306 18.4215 25.8306C18.484 25.7988 18.5159 25.7988 18.5784 25.7681C18.6102 25.7681 18.6409 25.7363 18.6409 25.7363C19.0171 25.5169 19.3003 25.1406 19.3934 24.7006C19.3934 24.6381 19.3934 24.5756 19.4253 24.5437V24.4812V24.4494L19.4265 18.0539C19.4265 17.8652 19.5834 17.7083 19.7721 17.7083C19.9609 17.7083 20.1178 17.8652 20.1178 18.0539V24.4541V24.4859V24.5484C20.1178 24.6109 20.1178 24.6735 20.1496 24.7053C20.2121 25.1441 20.4953 25.5216 20.9022 25.741C20.934 25.741 20.9647 25.7728 20.9647 25.7728C20.9965 25.8047 21.059 25.8047 21.1216 25.8354C21.1534 25.8354 21.2159 25.8672 21.2466 25.8672C21.2784 25.8672 21.3409 25.8672 21.3716 25.8991C21.4034 25.8991 21.4341 25.8991 21.466 25.931H21.5603H21.5922H21.6241C21.7184 25.931 21.7809 25.931 21.8753 25.8991H21.9378C22.0003 25.8672 22.0947 25.8672 22.1572 25.8366C22.1891 25.8366 22.1891 25.8047 22.2197 25.8047C22.2822 25.7728 22.3447 25.7422 22.4085 25.7103C22.4403 25.7103 22.471 25.6785 22.471 25.6478C22.5335 25.616 22.5653 25.5853 22.6279 25.5228C22.6597 25.4909 22.6597 25.491 22.6904 25.4603C22.7222 25.4284 22.7529 25.3659 22.7847 25.3353C22.8166 25.3034 22.8166 25.2728 22.8472 25.2409C22.8791 25.2091 22.8791 25.1465 22.9098 25.1159C22.9416 25.084 22.9416 25.0215 22.9723 24.9909C22.9723 24.959 23.0041 24.8965 23.0041 24.8659C23.0041 24.8034 23.036 24.7715 23.036 24.709V24.584V24.4896L23.0348 10.711L24.823 14.9788C25.0742 15.5745 25.7324 15.8257 26.3293 15.6064C26.7999 15.3551 27.0818 14.6651 26.8306 14.1L26.8306 14.1007Z" fill="#6B7280"/>
</svg>
